<svg xmlns="http://www.w3.org/2000/svg" width="183" height="174" viewBox="0 0 183 174">
<g>
<path d="M 91.98,20.05 L 96.61,20.20 L 98.91,20.29 L 103.35,20.58 L 104.43,20.66 L 104.69,20.77 L 105.16,20.93 L 109.80,22.97 L 111.09,23.77 L 111.64,24.19 L 112.67,25.03 L 113.08,25.45 L 113.82,26.30 L 114.06,26.70 L 114.47,27.51 L 114.53,27.88 L 114.55,28.60 L 114.41,28.92 L 114.02,29.51 L 113.66,29.75 L 113.08,29.93 L 112.36,30.08 L 111.86,30.16 L 110.77,30.34 L 110.09,30.43 L 108.66,30.63 L 107.84,30.73 L 104.27,31.16 L 102.17,31.38 L 97.81,31.83 L 95.47,32.04 L 90.77,32.48 L 88.07,32.75 L 86.91,32.88 L 84.71,33.14 L 83.78,33.27 L 82.02,33.53 L 81.28,33.66 L 79.90,33.92 L 79.33,34.06 L 78.26,34.34 L 77.82,34.50 L 76.30,35.14 L 75.76,35.54 L 73.93,37.22 L 73.52,37.74 L 73.41,37.96 L 73.24,38.36 L 73.27,38.50 L 73.19,39.27 L 72.98,39.94 L 72.81,40.32 L 71.98,41.99 L 71.44,42.83 L 70.30,44.46 L 69.76,45.05 L 69.24,45.58 L 69.01,45.74 L 68.59,46.00 L 68.43,46.00 L 67.26,46.38 L 66.25,46.98 L 65.67,47.42 L 64.46,48.39 L 63.82,48.99 L 62.49,50.23 L 61.83,50.92 L 59.15,53.83 L 58.01,55.32 L 56.92,56.80 L 56.47,57.50 L 55.65,58.86 L 55.37,59.46 L 54.11,62.56 L 53.57,64.62 L 53.40,65.91 L 53.26,67.25 L 53.21,68.04 L 53.12,69.70 L 53.09,70.68 L 53.04,72.75 L 53.03,73.97 L 53.01,76.56 L 53.01,78.07 L 53.10,84.69 L 53.28,88.45 L 53.46,90.08 L 53.88,93.16 L 54.21,94.51 L 54.97,97.11 L 55.49,98.29 L 56.66,100.58 L 57.43,101.68 L 59.09,103.86 L 60.14,104.97 L 62.39,107.22 L 63.76,108.44 L 66.67,110.96 L 68.41,112.38 L 70.76,114.43 L 71.81,115.51 L 72.12,115.97 L 72.59,116.85 L 72.66,117.28 L 72.68,118.13 L 72.56,118.61 L 72.53,120.02 L 72.86,120.89 L 73.20,121.29 L 73.99,122.07 L 74.56,122.42 L 75.83,123.11 L 76.64,123.41 L 78.38,124.01 L 79.44,124.27 L 81.66,124.77 L 82.96,124.99 L 85.68,125.41 L 87.23,125.59 L 90.44,125.92 L 92.24,126.06 L 95.69,126.34 L 97.68,126.52 L 98.54,126.62 L 100.18,126.82 L 100.89,126.93 L 102.25,127.15 L 102.85,127.28 L 105.02,127.82 L 105.94,128.18 L 107.71,128.98 L 108.62,129.52 L 112.08,131.91 L 113.66,133.42 L 114.07,134.12 L 114.65,135.47 L 114.54,136.07 L 114.37,136.65 L 114.19,136.92 L 113.75,137.44 L 113.44,137.67 L 111.69,138.61 L 110.49,139.00 L 110.06,139.00 L 109.66,139.14 L 109.67,139.37 L 109.80,139.53 L 110.14,139.90 L 110.42,140.12 L 111.07,140.59 L 111.50,140.86 L 114.24,142.83 L 116.16,144.46 L 117.09,145.36 L 117.36,145.63 L 116.01,144.39 L 114.87,143.40 L 112.49,141.68 L 109.00,139.69 L 108.06,139.26 L 106.01,138.62 L 105.46,138.47 L 104.20,138.22 L 103.53,138.10 L 101.99,137.89 L 101.17,137.79 L 99.25,137.62 L 98.23,137.53 L 95.84,137.38 L 94.58,137.30 L 91.64,137.16 L 86.50,136.95 L 84.98,136.89 L 82.17,136.76 L 80.80,136.69 L 78.30,136.55 L 77.08,136.47 L 74.88,136.31 L 73.82,136.23 L 71.92,136.05 L 71.01,135.96 L 69.40,135.76 L 68.63,135.66 L 67.31,135.44 L 66.69,135.33 L 65.65,135.10 L 64.40,134.73 L 62.37,133.97 L 58.52,132.16 L 57.81,131.80 L 57.79,131.70 L 57.69,131.43 L 57.55,131.22 L 57.19,130.73 L 56.92,130.40 L 56.31,129.69 L 55.92,129.25 L 52.95,125.69 L 51.41,123.59 L 50.89,122.72 L 50.03,121.13 L 49.88,120.57 L 49.78,120.06 L 49.81,119.87 L 49.91,119.55 L 50.05,119.47 L 50.22,118.75 L 50.05,117.88 L 49.83,117.27 L 49.29,115.93 L 48.90,115.11 L 48.03,113.38 L 47.48,112.39 L 45.29,108.34 L 44.07,105.89 L 43.56,104.74 L 41.83,100.28 L 41.30,97.97 L 40.82,95.61 L 40.65,94.33 L 40.35,91.69 L 40.26,90.21 L 40.10,87.14 L 40.06,85.38 L 40.01,81.71 L 40.01,79.59 L 40.08,73.74 L 40.20,70.26 L 40.31,68.70 L 40.55,65.68 L 40.73,64.31 L 41.12,61.66 L 41.38,60.42 L 42.58,55.70 L 43.49,53.45 L 44.46,51.20 L 45.03,50.05 L 46.23,47.71 L 46.92,46.48 L 48.21,43.96 L 49.05,42.10 L 49.42,41.15 L 50.14,39.28 L 50.43,38.41 L 50.93,36.74 L 51.08,36.06 L 52.59,31.74 L 53.27,30.44 L 53.65,29.87 L 54.42,28.81 L 54.82,28.40 L 56.98,26.19 L 58.79,25.24 L 60.90,24.23 L 65.30,22.65 L 72.12,20.98 L 73.52,20.74 L 77.01,20.41 L 78.85,20.26 L 83.01,20.10 L 85.15,20.04 L 89.69,20.04 M 42.40,119.80 L 42.29,119.68 L 42.20,119.58 M 35.00,108.66 L 36.42,111.38 L 37.22,112.68 L 38.86,115.26 L 39.76,116.49 L 39.93,116.70 L 39.77,116.50 L 38.56,114.88 L 36.43,111.42 L 35.42,109.65 L 34.47,107.60 M 34.20,107.03 L 33.70,105.93 L 33.42,105.16 M 30.09,88.83 L 30.24,90.77 L 30.57,94.51 L 30.80,96.08 L 31.04,97.60 L 31.17,98.27 L 31.45,99.54 L 31.61,100.07 L 32.02,101.25 L 31.60,100.07 L 31.44,99.54 L 31.16,98.26 L 31.02,97.59 L 30.79,96.07 L 30.56,94.50 L 30.23,90.76 L 30.09,88.82 L 29.95,85.10 M 150.50,56.49 L 150.74,57.52 L 150.49,56.44 M 33.55,51.54 L 32.44,54.32 L 32.13,55.32 L 32.69,53.50 L 33.62,51.38 M 148.85,51.56 L 149.55,53.59 L 148.78,51.41 M 139.68,37.33 L 140.90,38.67 L 143.05,41.38 L 144.08,42.75 L 145.87,45.57 L 146.72,47.01 L 148.16,50.02 L 148.46,50.69 L 148.06,49.80 L 146.57,46.77 L 145.69,45.32 L 143.85,42.47 L 142.79,41.08 L 140.57,38.33 L 139.37,37.03 M 40.75,39.54 L 38.85,42.07 L 37.98,43.38 L 36.30,46.04 L 35.56,47.40 L 34.21,50.02 L 34.54,49.27 L 35.54,47.20 L 37.97,43.27 L 39.25,41.35 L 40.76,39.53 M 134.90,32.68 L 135.15,32.92 L 134.50,32.36 M 131.47,29.89 L 132.41,30.66 L 132.37,30.63 L 130.14,28.99 M 114.56,21.90 L 115.29,22.03 L 116.58,22.33 L 118.17,22.80 L 120.17,23.52 L 124.05,25.35 L 125.97,26.33 L 128.44,27.89 L 126.04,26.44 L 124.70,25.76 L 122.00,24.45 L 120.62,23.89 L 117.82,22.84 L 116.38,22.41 L 114.46,21.88 M 152.80,72.31 L 152.97,79.50 L 152.79,72.30 Z" fill="rgba(20,161,123,1)"/>
<path d="M 54.82,28.40 L 54.42,28.81 L 53.65,29.87 L 53.27,30.44 L 52.59,31.74 L 51.08,36.06 L 50.93,36.74 L 50.43,38.41 L 50.14,39.28 L 49.42,41.15 L 49.05,42.10 L 48.21,43.96 L 46.92,46.48 L 46.23,47.71 L 45.03,50.05 L 44.46,51.20 L 43.49,53.45 L 42.58,55.70 L 41.38,60.42 L 41.12,61.66 L 40.73,64.31 L 40.55,65.68 L 40.31,68.70 L 40.20,70.26 L 40.08,73.74 L 40.01,79.59 L 40.01,81.71 L 40.06,85.38 L 40.10,87.14 L 40.26,90.21 L 40.35,91.69 L 40.65,94.33 L 40.82,95.61 L 41.30,97.97 L 41.83,100.28 L 43.56,104.74 L 44.07,105.89 L 45.29,108.34 L 47.48,112.39 L 48.03,113.38 L 48.90,115.11 L 49.29,115.93 L 49.83,117.27 L 50.05,117.88 L 50.22,118.75 L 50.05,119.47 L 49.91,119.55 L 49.81,119.87 L 49.78,120.06 L 49.88,120.57 L 50.03,121.13 L 50.89,122.72 L 51.41,123.59 L 52.95,125.69 L 55.92,129.25 L 56.31,129.69 L 56.92,130.40 L 57.19,130.73 L 57.55,131.22 L 57.69,131.43 L 57.79,131.70 L 57.81,131.80 L 57.65,131.84 L 57.53,131.83 L 57.09,131.64 L 56.83,131.52 L 56.11,131.10 L 55.71,130.87 L 54.69,130.22 L 54.14,129.88 L 52.82,129.00 L 51.56,128.17 L 49.16,126.33 L 47.99,125.39 L 45.76,123.34 L 44.66,122.29 L 42.62,120.05 L 41.62,118.91 L 39.76,116.49 L 38.86,115.26 L 37.22,112.68 L 36.42,111.38 L 35.00,108.66 L 34.31,107.29 L 33.12,104.45 L 31.61,100.07 L 31.45,99.54 L 31.17,98.27 L 31.04,97.60 L 30.80,96.08 L 30.57,94.51 L 30.24,90.77 L 30.09,88.83 L 29.93,84.58 L 29.87,82.42 L 29.87,77.95 L 29.89,75.71 L 30.05,71.30 L 30.15,69.14 L 30.47,65.09 L 30.65,63.14 L 31.12,59.75 L 31.25,58.95 L 31.54,57.53 L 32.01,55.71 L 32.44,54.32 L 33.55,51.54 L 34.14,50.15 L 35.56,47.40 L 36.30,46.04 L 37.98,43.38 L 38.85,42.07 L 40.75,39.54 L 41.73,38.30 L 43.81,35.97 L 44.87,34.83 L 47.10,32.73 L 48.23,31.72 L 50.57,29.91 L 54.14,27.58 L 57.50,25.66 M 91.53,56.01 L 93.42,56.04 L 94.22,56.07 L 95.72,56.13 L 96.35,56.18 L 97.54,56.29 L 98.04,56.37 L 99.83,56.74 L 100.54,57.04 L 101.89,57.72 L 102.60,58.21 L 105.24,60.55 L 106.64,62.37 L 107.17,63.37 L 108.09,65.44 L 108.37,66.53 L 108.82,68.73 L 108.86,69.85 L 108.82,72.10 L 108.62,73.20 L 108.09,75.38 L 107.64,76.42 L 106.62,78.44 L 105.92,79.35 L 104.40,81.11 L 103.46,81.85 L 101.47,83.26 L 100.17,83.92 L 99.37,84.17 L 97.62,84.63 L 96.39,84.84 L 95.09,85.05 L 94.33,85.16 L 92.70,85.38 L 91.75,85.51 L 87.00,86.12 L 87.00,100.00 L 77.00,100.00 L 77.00,56.00 L 88.19,56.00 M 87.00,65.00 L 87.00,69.83 L 87.20,73.44 L 87.33,74.37 L 87.41,74.69 L 87.57,75.24 L 87.67,75.33 L 88.56,75.84 L 89.29,75.93 L 90.92,76.03 L 91.84,75.94 L 93.72,75.67 L 94.58,75.42 L 96.22,74.84 L 96.78,74.44 L 98.35,72.65 L 99.00,71.17 L 99.00,70.51 L 98.52,68.12 L 97.72,66.85 L 97.09,66.39 L 95.66,65.58 L 94.72,65.35 L 92.68,65.00 Z" fill="rgba(46,131,112,1)"/>
<path d="M 64.88,109.30 L 69.08,111.61 L 72.09,112.73 L 73.95,113.12 L 75.88,113.48 L 76.97,113.63 L 79.26,113.92 L 80.56,114.03 L 83.30,114.25 L 84.86,114.34 L 88.13,114.51 L 90.00,114.59 L 103.50,115.13 L 106.25,118.28 L 108.19,120.99 L 108.64,121.84 L 108.78,122.20 L 109.00,122.86 L 109.00,123.09 L 109.30,123.97 L 109.76,124.70 L 110.10,125.11 L 111.72,126.83 L 112.75,127.61 L 116.14,130.34 L 118.10,132.08 L 118.94,132.92 L 120.51,134.60 L 121.16,135.42 L 122.36,137.06 L 122.84,137.88 L 123.70,139.52 L 124.01,140.36 L 124.55,142.05 L 124.71,142.92 L 124.95,144.69 L 124.97,145.61 L 124.93,147.50 L 124.81,148.49 L 124.69,150.32 L 124.79,150.89 L 125.12,151.79 L 125.45,151.89 L 126.23,151.87 L 125.81,152.20 L 125.45,152.45 L 124.80,152.79 L 123.98,153.00 L 123.77,153.00 L 123.01,152.34 L 122.61,151.93 L 121.74,150.75 L 121.20,149.93 L 119.71,148.11 L 118.91,147.19 L 117.09,145.36 L 116.16,144.46 L 114.24,142.83 L 111.50,140.86 L 111.07,140.59 L 110.42,140.12 L 110.14,139.90 L 109.80,139.53 L 109.67,139.37 L 109.66,139.14 L 110.06,139.00 L 110.49,139.00 L 111.69,138.61 L 113.44,137.67 L 113.75,137.44 L 114.19,136.92 L 114.37,136.65 L 114.54,136.07 L 114.65,135.47 L 114.07,134.12 L 113.66,133.42 L 112.08,131.91 L 108.62,129.52 L 107.71,128.98 L 105.94,128.18 L 105.02,127.82 L 102.85,127.28 L 102.25,127.15 L 100.89,126.93 L 100.18,126.82 L 98.54,126.62 L 97.68,126.52 L 95.69,126.34 L 92.24,126.06 L 90.44,125.92 L 87.23,125.59 L 85.68,125.41 L 82.96,124.99 L 81.66,124.77 L 79.44,124.27 L 78.38,124.01 L 76.64,123.41 L 75.83,123.11 L 74.56,122.42 L 73.99,122.07 L 73.20,121.29 L 72.86,120.89 L 72.53,120.02 L 72.56,118.61 L 72.68,118.13 L 72.66,117.28 L 72.59,116.85 L 72.12,115.97 L 71.81,115.51 L 70.76,114.43 L 68.41,112.38 L 66.67,110.96 L 64.33,108.94 M 133.58,139.61 L 133.57,139.66 L 133.59,139.53 M 132.13,129.92 L 132.85,131.45 L 133.58,134.66 L 133.83,136.29 L 133.72,137.71 L 133.72,137.69 L 133.66,135.53 L 133.48,134.46 L 133.01,132.32 L 132.63,131.29 L 131.84,129.40 M 130.44,126.93 L 131.29,128.42 L 131.19,128.25 L 129.93,126.34 M 129.24,125.55 L 129.15,125.44 L 128.05,124.08 L 128.04,124.06 M 105.38,20.42 L 107.50,20.62 L 109.02,20.78 L 112.00,21.31 L 113.48,21.61 L 116.38,22.41 L 117.82,22.84 L 120.62,23.89 L 122.00,24.45 L 124.70,25.76 L 126.04,26.44 L 128.62,28.01 L 129.90,28.82 L 132.37,30.63 L 133.59,31.56 L 135.94,33.62 L 139.31,36.97 L 140.57,38.33 L 142.79,41.08 L 143.85,42.47 L 145.69,45.32 L 146.57,46.77 L 148.06,49.80 L 148.76,51.35 L 149.92,54.62 L 150.45,56.30 L 151.30,59.90 L 151.69,61.75 L 151.84,62.80 L 151.76,62.60 L 151.69,62.58 L 151.57,62.66 L 151.52,62.88 L 151.43,63.44 L 151.39,63.92 L 151.31,65.00 L 151.28,65.74 L 151.22,67.38 L 151.20,68.42 L 151.16,70.64 L 151.14,71.98 L 151.11,74.83 L 151.10,76.50 L 151.01,83.42 L 150.92,87.78 L 150.86,89.68 L 150.80,91.53 L 150.77,92.35 L 150.71,93.93 L 150.67,94.61 L 150.60,95.86 L 150.57,96.35 L 150.50,97.22 L 150.46,97.50 L 150.26,99.11 L 150.22,99.60 L 150.17,100.38 L 150.22,100.48 L 150.35,100.50 L 150.50,100.24 L 150.86,99.57 L 151.13,99.00 L 151.20,98.80 L 150.39,101.74 L 149.93,103.26 L 148.79,106.18 L 148.18,107.62 L 146.72,110.42 L 145.96,111.81 L 144.17,114.58 L 141.09,118.77 L 140.41,119.62 L 139.21,121.07 L 138.64,121.74 L 137.61,122.84 L 137.11,123.35 L 136.23,124.13 L 135.80,124.48 L 135.02,124.95 L 134.64,125.14 L 133.94,125.32 L 133.60,125.37 L 132.95,125.28 L 131.02,124.02 L 130.56,123.56 L 129.61,122.83 L 129.14,122.51 L 128.31,122.12 L 127.98,122.00 L 128.15,121.89 L 128.81,121.27 L 128.78,121.01 L 128.50,121.00 L 127.37,120.71 L 126.46,120.31 L 126.06,120.06 L 125.58,119.41 L 125.66,118.83 L 125.93,118.42 L 126.63,117.51 L 127.24,116.90 L 128.63,115.54 L 129.62,114.65 L 131.95,112.31 L 133.48,110.52 L 134.20,109.55 L 137.00,105.48 L 138.06,103.39 L 139.20,101.12 L 139.81,99.83 L 140.05,99.23 L 140.87,96.89 L 141.11,95.46 L 141.32,93.97 L 141.40,93.07 L 141.53,91.16 L 141.58,89.99 L 141.67,87.48 L 141.71,85.94 L 141.78,82.66 L 141.82,80.67 L 141.88,74.51 L 141.83,70.94 L 141.75,69.38 L 141.56,66.40 L 141.40,65.08 L 141.03,62.54 L 140.77,61.40 L 140.19,59.18 L 139.82,58.14 L 139.00,56.11 L 138.50,55.11 L 137.42,53.13 L 136.77,52.11 L 135.39,50.04 L 134.57,48.93 L 132.81,46.79 L 131.43,45.37 L 130.66,44.67 L 127.42,41.93 L 125.68,40.75 L 122.16,38.53 L 120.50,37.75 L 118.86,37.03 L 118.10,36.78 L 116.63,36.36 L 115.98,36.27 L 112.56,36.08 L 110.52,36.23 L 109.70,36.42 L 108.20,36.88 L 107.73,37.21 L 107.00,37.92 L 107.00,38.36 L 106.83,39.57 L 106.53,40.27 L 106.26,40.56 L 105.63,41.11 L 105.17,41.35 L 104.15,41.78 L 103.48,41.96 L 102.00,42.30 L 101.06,42.43 L 99.06,42.69 L 97.83,42.79 L 95.23,42.98 L 93.68,43.05 L 90.41,43.19 L 88.50,43.26 L 82.81,43.48 L 79.57,43.67 L 78.19,43.79 L 75.58,44.07 L 74.46,44.25 L 72.33,44.66 L 71.40,44.92 L 69.62,45.49 L 68.92,45.80 L 69.01,45.74 L 69.24,45.58 L 69.76,45.05 L 70.30,44.46 L 71.44,42.83 L 71.98,41.99 L 72.81,40.32 L 72.98,39.94 L 73.19,39.27 L 73.27,38.50 L 73.24,38.36 L 73.41,37.96 L 73.52,37.74 L 73.93,37.22 L 75.76,35.54 L 76.30,35.14 L 77.82,34.50 L 78.26,34.34 L 79.33,34.06 L 79.90,33.92 L 81.28,33.66 L 82.02,33.53 L 83.78,33.27 L 84.71,33.14 L 86.91,32.88 L 88.07,32.75 L 90.77,32.48 L 95.47,32.04 L 97.81,31.83 L 102.17,31.38 L 104.27,31.16 L 107.84,30.73 L 108.66,30.63 L 110.09,30.43 L 110.77,30.34 L 111.86,30.16 L 112.36,30.08 L 113.08,29.93 L 113.66,29.75 L 114.02,29.51 L 114.41,28.92 L 114.55,28.60 L 114.53,27.88 L 114.47,27.51 L 114.06,26.70 L 113.82,26.30 L 113.08,25.45 L 112.67,25.03 L 111.64,24.19 L 111.09,23.77 L 109.80,22.97 L 105.16,20.93 L 104.69,20.77 L 104.24,20.57 L 104.09,20.48 L 104.30,20.40 L 104.49,20.38 M 53.13,84.48 L 53.35,88.22 L 53.54,89.87 L 53.98,93.03 L 54.29,94.42 L 54.98,97.09 L 55.10,97.42 L 54.97,97.11 L 54.21,94.51 L 53.88,93.16 L 53.46,90.08 L 53.28,88.45 L 53.10,84.69 L 53.01,78.24 M 152.79,72.23 L 152.97,79.50 L 152.97,81.78 L 152.83,85.97 L 152.73,88.00 L 152.37,91.75 L 152.17,93.58 L 151.87,95.28 L 151.97,94.50 L 152.10,93.02 L 152.35,89.87 L 152.45,88.09 L 152.62,84.44 L 152.68,82.54 L 152.77,78.71 L 152.78,76.85 L 152.77,73.19 L 152.73,71.53 L 152.72,71.18 M 53.40,65.92 L 53.26,67.27 L 53.21,68.06 L 53.12,69.73 L 53.09,70.71 L 53.04,72.79 L 53.03,74.01 L 53.01,76.60 L 53.01,78.07 L 53.01,78.07 L 53.01,76.56 L 53.03,73.97 L 53.04,72.75 L 53.09,70.68 L 53.12,69.70 L 53.21,68.04 L 53.26,67.25 L 53.40,65.91 L 53.52,65.00 M 53.57,64.63 L 53.57,64.62 L 54.08,62.70 M 55.35,59.50 L 54.11,62.58 L 54.11,62.56 L 55.37,59.46 L 55.65,58.86 L 55.67,58.82 M 67.24,46.62 L 66.49,47.09 L 64.99,48.11 L 64.23,48.72 L 63.18,49.58 L 63.82,48.99 L 64.46,48.39 L 65.67,47.42 L 66.25,46.98 L 67.26,46.38 L 68.43,46.00 L 68.50,46.00 Z" fill="rgba(69,175,121,1)"/>
<path d="M 105.12,115.46 L 106.52,115.63 L 109.21,115.98 L 110.41,116.19 L 112.72,116.63 L 113.75,116.88 L 115.75,117.42 L 116.66,117.73 L 120.08,119.09 L 121.61,119.97 L 124.33,121.37 L 125.48,121.77 L 126.57,122.12 L 126.99,122.19 L 127.71,122.27 L 127.58,122.43 L 127.48,122.63 L 127.54,123.12 L 127.61,123.38 L 128.05,124.08 L 129.15,125.44 L 129.93,126.33 L 131.19,128.25 L 131.77,129.23 L 132.63,131.29 L 133.01,132.32 L 133.48,134.46 L 133.66,135.53 L 133.72,137.69 L 133.71,138.77 L 133.38,140.91 L 133.16,141.98 L 132.44,144.05 L 132.02,145.07 L 130.90,147.01 L 128.78,149.74 L 128.00,150.56 L 126.79,151.51 L 126.23,151.87 L 125.45,151.89 L 125.12,151.79 L 124.79,150.89 L 124.69,150.32 L 124.81,148.49 L 124.93,147.50 L 124.97,145.61 L 124.95,144.69 L 124.71,142.92 L 124.55,142.05 L 124.01,140.36 L 123.70,139.52 L 122.84,137.88 L 122.36,137.06 L 121.16,135.42 L 120.51,134.60 L 118.94,132.92 L 118.10,132.08 L 116.14,130.34 L 112.75,127.61 L 111.72,126.83 L 110.10,125.11 L 109.76,124.70 L 109.30,123.97 L 109.00,123.09 L 109.00,122.86 L 108.78,122.20 L 108.64,121.84 L 108.19,120.99 L 106.25,118.28 L 103.68,115.33 M 115.98,36.27 L 116.63,36.36 L 118.10,36.78 L 118.86,37.03 L 120.50,37.75 L 122.16,38.53 L 125.68,40.75 L 127.42,41.93 L 130.66,44.67 L 131.43,45.37 L 132.81,46.79 L 134.57,48.93 L 135.39,50.04 L 136.77,52.11 L 137.42,53.13 L 138.50,55.11 L 139.00,56.11 L 139.82,58.14 L 140.19,59.18 L 140.77,61.40 L 141.03,62.54 L 141.40,65.08 L 141.56,66.40 L 141.75,69.38 L 141.83,70.94 L 141.88,74.51 L 141.82,80.67 L 141.78,82.66 L 141.71,85.94 L 141.67,87.48 L 141.58,89.99 L 141.53,91.16 L 141.40,93.07 L 141.32,93.97 L 141.11,95.46 L 140.87,96.89 L 140.05,99.23 L 139.81,99.83 L 139.20,101.12 L 138.06,103.39 L 137.00,105.48 L 134.20,109.55 L 133.48,110.52 L 131.95,112.31 L 129.62,114.65 L 128.63,115.54 L 127.24,116.90 L 126.63,117.51 L 125.93,118.42 L 125.66,118.83 L 125.58,119.41 L 126.06,120.06 L 126.46,120.31 L 127.37,120.71 L 128.50,121.00 L 128.78,121.01 L 128.81,121.27 L 128.15,121.89 L 127.91,122.04 L 127.82,121.67 L 127.11,121.06 L 126.50,120.66 L 125.16,119.81 L 124.32,119.34 L 122.57,118.36 L 121.61,117.87 L 117.65,115.92 L 115.92,115.20 L 114.26,114.54 L 113.60,114.33 L 112.41,114.00 L 112.07,114.00 L 111.94,113.70 L 112.31,113.22 L 112.70,112.87 L 113.61,112.11 L 114.23,111.66 L 115.57,110.69 L 116.37,110.17 L 120.73,106.77 L 123.30,104.21 L 124.39,102.82 L 126.42,100.00 L 127.19,98.54 L 128.57,95.59 L 128.99,94.11 L 129.51,91.26 L 129.77,88.82 L 129.85,87.41 L 129.99,84.47 L 130.01,82.89 L 130.03,79.69 L 130.00,78.06 L 129.91,74.80 L 129.82,73.22 L 129.61,70.13 L 129.47,68.72 L 129.17,66.02 L 128.98,64.89 L 128.57,62.80 L 128.33,62.06 L 126.13,57.24 L 124.08,54.12 L 122.84,52.70 L 120.24,49.95 L 118.79,48.79 L 115.82,46.64 L 114.27,45.87 L 111.20,44.56 L 110.16,44.26 L 109.56,44.15 L 108.31,43.93 L 107.56,43.86 L 105.96,43.72 L 104.97,43.67 L 102.87,43.60 L 101.58,43.58 L 98.83,43.54 L 97.16,43.54 L 93.62,43.53 L 91.50,43.54 L 86.41,43.56 L 83.49,43.60 L 82.24,43.62 L 79.88,43.69 L 78.88,43.73 L 78.88,43.73 L 79.57,43.67 L 82.81,43.48 L 88.50,43.26 L 90.41,43.19 L 93.68,43.05 L 95.23,42.98 L 97.83,42.79 L 99.06,42.69 L 101.06,42.43 L 102.00,42.30 L 103.48,41.96 L 104.15,41.78 L 105.17,41.35 L 105.63,41.11 L 106.26,40.56 L 106.53,40.27 L 106.83,39.57 L 107.00,38.36 L 107.00,37.92 L 107.73,37.21 L 108.20,36.88 L 109.70,36.42 L 110.52,36.23 L 112.56,36.08 M 74.05,113.13 L 76.01,113.50 L 77.13,113.64 L 79.47,113.92 L 80.80,114.03 L 83.61,114.24 L 85.21,114.33 L 88.58,114.49 L 90.50,114.56 L 96.67,114.83 L 97.84,114.90 L 90.00,114.59 L 88.13,114.51 L 84.86,114.34 L 83.30,114.25 L 80.56,114.03 L 79.26,113.92 L 76.97,113.63 L 75.88,113.48 L 73.95,113.12 L 73.29,112.98 M 71.43,112.47 L 73.10,112.94 L 72.09,112.73 L 71.31,112.44 M 69.08,111.61 L 64.88,109.30 L 69.10,111.62 M 151.76,62.60 L 151.90,62.97 L 152.16,64.00 L 152.24,64.37 L 152.37,65.34 L 152.43,65.86 L 152.53,67.08 L 152.63,68.37 L 152.73,71.53 L 152.77,73.19 L 152.78,76.85 L 152.77,78.71 L 152.68,82.54 L 152.62,84.44 L 152.45,88.09 L 152.35,89.87 L 152.10,93.02 L 151.97,94.50 L 151.66,96.82 L 151.58,97.34 L 151.41,98.15 L 151.13,99.00 L 150.86,99.57 L 150.50,100.24 L 150.35,100.50 L 150.22,100.48 L 150.17,100.38 L 150.22,99.60 L 150.26,99.11 L 150.46,97.50 L 150.50,97.22 L 150.57,96.35 L 150.60,95.86 L 150.67,94.61 L 150.71,93.93 L 150.77,92.35 L 150.80,91.53 L 150.86,89.68 L 150.92,87.78 L 151.01,83.42 L 151.10,76.50 L 151.11,74.83 L 151.14,71.98 L 151.16,70.64 L 151.20,68.42 L 151.22,67.38 L 151.28,65.74 L 151.31,65.00 L 151.39,63.92 L 151.43,63.44 L 151.52,62.88 L 151.57,62.66 L 151.69,62.58 M 56.76,56.98 L 57.07,56.48 L 57.56,55.79 M 65.44,47.85 L 62.65,50.04 L 61.38,51.30 L 59.16,53.65 L 60.03,52.61 L 61.82,50.77 L 62.67,50.01 L 64.23,48.72 L 64.99,48.11 L 66.49,47.09 L 67.24,46.62 L 68.81,45.85 L 68.85,45.83 M 55.67,58.81 L 55.35,59.50 L 55.67,58.81 Z" fill="rgba(108,189,117,1)"/>
<path d="M 121.61,119.97 L 120.08,119.09 L 116.66,117.73 L 115.75,117.42 L 113.75,116.88 L 112.72,116.63 L 110.41,116.19 L 109.21,115.98 L 106.52,115.63 L 105.12,115.46 L 101.98,115.18 L 100.34,115.05 L 96.67,114.83 L 90.50,114.56 L 88.58,114.49 L 85.21,114.33 L 83.61,114.24 L 80.80,114.03 L 79.47,113.92 L 77.13,113.64 L 76.01,113.50 L 74.05,113.13 L 73.11,112.94 L 71.43,112.47 L 70.62,112.23 L 69.12,111.63 L 64.88,109.30 L 63.71,108.53 L 61.68,106.93 L 60.72,106.13 L 59.07,104.40 L 58.30,103.51 L 57.01,101.55 L 56.40,100.54 L 55.43,98.27 L 54.98,97.09 L 54.29,94.42 L 53.98,93.03 L 53.54,89.87 L 53.35,88.22 L 53.13,84.48 L 53.01,78.12 L 53.01,76.60 L 53.03,74.01 L 53.04,72.79 L 53.09,70.71 L 53.12,69.73 L 53.21,68.06 L 53.26,67.27 L 53.40,65.92 L 53.57,64.64 L 54.11,62.58 L 55.35,59.50 L 56.00,58.11 L 57.89,55.30 L 58.92,53.91 L 61.38,51.30 L 62.65,50.04 L 65.44,47.85 L 69.73,45.31 L 70.51,44.95 L 72.35,44.43 L 72.86,44.31 L 74.06,44.12 L 74.69,44.04 L 76.19,43.89 L 76.99,43.83 L 78.88,43.73 L 79.88,43.69 L 82.24,43.62 L 83.49,43.60 L 86.41,43.56 L 91.50,43.54 L 93.62,43.53 L 97.16,43.54 L 98.83,43.54 L 101.58,43.58 L 102.87,43.60 L 104.97,43.67 L 105.96,43.72 L 107.56,43.86 L 108.31,43.93 L 109.56,44.15 L 110.16,44.26 L 111.20,44.56 L 114.27,45.87 L 115.82,46.64 L 118.79,48.79 L 120.24,49.95 L 122.84,52.70 L 124.08,54.12 L 126.13,57.24 L 128.33,62.06 L 128.57,62.80 L 128.98,64.89 L 129.17,66.02 L 129.47,68.72 L 129.61,70.13 L 129.82,73.22 L 129.91,74.80 L 130.00,78.06 L 130.03,79.69 L 130.01,82.89 L 129.99,84.47 L 129.85,87.41 L 129.77,88.82 L 129.51,91.26 L 128.99,94.11 L 128.57,95.59 L 127.19,98.54 L 126.42,100.00 L 124.39,102.82 L 123.30,104.21 L 120.73,106.77 L 116.37,110.17 L 115.57,110.69 L 114.23,111.66 L 113.61,112.11 L 112.70,112.87 L 112.31,113.22 L 111.94,113.70 L 112.07,114.00 L 112.41,114.00 L 113.60,114.33 L 114.26,114.54 L 115.92,115.20 L 117.65,115.92 L 121.61,117.87 L 122.57,118.36 L 124.32,119.34 L 125.16,119.81 L 126.50,120.66 L 127.11,121.06 L 127.82,121.67 L 127.94,122.19 L 127.74,122.27 L 126.99,122.19 L 126.57,122.12 L 125.48,121.77 L 124.33,121.37 M 87.00,93.06 L 87.00,86.12 L 91.75,85.51 L 92.70,85.38 L 94.33,85.16 L 95.09,85.05 L 96.39,84.84 L 97.62,84.63 L 99.37,84.17 L 100.17,83.92 L 101.47,83.26 L 103.46,81.85 L 104.40,81.11 L 105.92,79.35 L 106.62,78.44 L 107.64,76.42 L 108.09,75.38 L 108.62,73.20 L 108.82,72.10 L 108.86,69.85 L 108.82,68.73 L 108.37,66.53 L 108.09,65.44 L 107.17,63.37 L 106.64,62.37 L 105.24,60.55 L 102.60,58.21 L 101.89,57.72 L 100.54,57.04 L 99.83,56.74 L 98.04,56.37 L 97.54,56.29 L 96.35,56.18 L 95.72,56.13 L 94.22,56.07 L 93.42,56.04 L 91.53,56.01 L 88.19,56.00 L 77.00,56.00 L 77.00,78.00 L 77.00,100.00 L 82.00,100.00 L 87.00,100.00 L 87.00,93.06 M 87.67,75.33 L 87.57,75.24 L 87.41,74.69 L 87.33,74.37 L 87.20,73.44 L 87.00,69.83 L 87.00,65.00 L 91.43,65.00 L 92.68,65.00 L 94.72,65.35 L 95.66,65.58 L 97.09,66.39 L 97.72,66.85 L 98.52,68.12 L 99.00,70.51 L 99.00,71.17 L 98.35,72.65 L 96.78,74.44 L 96.22,74.84 L 94.58,75.42 L 93.72,75.67 L 91.84,75.94 L 90.92,76.03 L 89.29,75.93 L 88.56,75.84 Z" fill="rgba(253,254,253,1)"/>
</g>
</svg>