<?xml version="1.0" encoding="UTF-8"?>
<svg version="1.1" xmlns="http://www.w3.org/2000/svg" width="183" height="214">
<path d="M0 0 C13.84448586 16.28631265 15.22872491 35.74057635 13.83203125 56.49609375 C12.30619648 70.32866145 5.95388231 81.48219254 -4 91 C-4.99 91.66 -5.98 92.32 -7 93 C-6.80921875 93.67804688 -6.6184375 94.35609375 -6.421875 95.0546875 C-4.89203015 101.47647808 -4.82726286 105.80838419 -7.65234375 111.83203125 C-10.24912283 116.00945846 -13.28399277 118.42799759 -18 120 C-18.66 118.68 -19.32 117.36 -20 116 C-20.66 116 -21.32 116 -22 116 C-22.37125 115.278125 -22.7425 114.55625 -23.125 113.8125 C-26.48675566 108.76986651 -31.50091839 106.16908813 -37.3125 104.6875 C-41.49822806 103.91999808 -45.54547564 103.91509136 -49.7890625 103.98046875 C-68.74420948 104.0957677 -84.64765542 101.17943046 -98.875 87.5625 C-110.3504166 75.43251418 -113.19754004 61.75958328 -113.29516602 45.4440918 C-113.31224475 43.46704778 -113.35611587 41.49029386 -113.40039062 39.51367188 C-113.50693585 23.17946881 -108.49988548 10.17183024 -97.39453125 -1.70703125 C-93.89919998 -5.0541103 -90.19850237 -7.61585044 -86 -10 C-85.319375 -10.38929687 -84.63875 -10.77859375 -83.9375 -11.1796875 C-58.71638589 -24.67692435 -20.62553149 -18.37596629 0 0 Z M-80 17 C-86.22348139 25.58557547 -87.18059138 32.38707237 -87.1875 42.75 C-87.19974609 43.70132813 -87.21199219 44.65265625 -87.22460938 45.6328125 C-87.24710973 56.58298728 -85.70063909 63.92648786 -78 72 C-70.83658074 77.94411385 -63.60096542 78.19758452 -54.69921875 77.98046875 C-51.97329236 77.99486118 -49.46234237 78.12671537 -46.76953125 78.42578125 C-37.17736029 79.44290608 -31.09981182 79.03549693 -23 73 C-23 72.34 -23 71.68 -23 71 C-22.4225 70.773125 -21.845 70.54625 -21.25 70.3125 C-16.32941168 67.44215681 -14.49242614 63.30371644 -13 58 C-12.57303516 53.58970435 -12.62978818 49.17906991 -12.625 44.75 C-12.58826172 42.98462891 -12.58826172 42.98462891 -12.55078125 41.18359375 C-12.52144253 32.39175756 -13.62395014 24.98200753 -19.4375 18.125 C-20.7059375 17.073125 -20.7059375 17.073125 -22 16 C-22.825 15.278125 -23.65 14.55625 -24.5 13.8125 C-37.13151847 4.65464911 -69.15321606 5.29543467 -80 17 Z " fill="#32AF7B" transform="translate(141,35)"/>
<path d="M0 0 C3.72433088 3.92220804 4.83406255 7.46021465 5.625 12.6875 C6.24098873 17.81353275 6.24098873 17.81353275 9 22 C10.27974326 30.46320781 10.11287912 39.26840978 10.1875 47.8125 C10.20055176 48.67077393 10.21360352 49.52904785 10.22705078 50.41333008 C10.23520916 56.48490921 9.39105717 62.09450914 8 68 C7.01 68 6.02 68 5 68 C5.185625 68.5775 5.37125 69.155 5.5625 69.75 C6.04023546 72.20692525 5.75729364 73.64397534 5 76 C4.34 76 3.68 76 3 76 C2.5978125 77.2065625 2.5978125 77.2065625 2.1875 78.4375 C1.795625 79.283125 1.40375 80.12875 1 81 C-0.485 81.495 -0.485 81.495 -2 82 C-3.20882096 84.00016466 -3.20882096 84.00016466 -4 86 C-4.99 86 -5.98 86 -7 86 C-7.66 86.99 -8.32 87.98 -9 89 C-11.31 87.68 -13.62 86.36 -16 85 C-14.86280581 81.58841744 -13.95657056 80.88145399 -11 79 C-10.34 79 -9.68 79 -9 79 C-8.505 77.02 -8.505 77.02 -8 75 C-7.34 75 -6.68 75 -6 75 C-6 74.34 -6 73.68 -6 73 C-5.21625 72.319375 -4.4325 71.63875 -3.625 70.9375 C2.3707056 64.22801993 1.2858445 54.39672837 1.20581055 45.88818359 C1.18747219 43.87194202 1.18530212 41.85616042 1.18554688 39.83984375 C1.15829377 33.77754273 0.95722218 27.99731919 0 22 C-0.66 22 -1.32 22 -2 22 C-2.09796875 21.37351563 -2.1959375 20.74703125 -2.296875 20.1015625 C-2.44640625 19.28429688 -2.5959375 18.46703125 -2.75 17.625 C-2.95882812 16.40683594 -2.95882812 16.40683594 -3.171875 15.1640625 C-4.23602951 12.38320591 -5.36831834 12.19150941 -8 11 C-8.495 9.515 -8.495 9.515 -9 8 C-10.485 7.505 -10.485 7.505 -12 7 C-12 6.34 -12 5.68 -12 5 C-12.99 5 -13.98 5 -15 5 C-15 4.34 -15 3.68 -15 3 C-23.89721536 -1.58255533 -31.73266091 -3.63897756 -41.75 -3.375 C-42.79841064 -3.35848389 -43.84682129 -3.34196777 -44.92700195 -3.32495117 C-59.25764707 -3.00384409 -75.71033985 -2.61189092 -86.5625 8 C-87.72638478 9.31760541 -88.87507813 10.64897721 -90 12 C-90.7425 12.7425 -91.485 13.485 -92.25 14.25 C-97.76065647 22.90960303 -98.69443503 32.67942952 -98.89379883 42.71044922 C-98.93777998 44.76306675 -99.01883788 46.81198107 -99.10351562 48.86328125 C-99.30442945 56.07502999 -99.04571147 61.4497426 -96 68 C-96 68.99 -96 69.98 -96 71 C-95.34 71 -94.68 71 -94 71 C-92.34376863 73.26831687 -90.91247457 75.6417912 -89.4375 78.03125 C-88.963125 78.6809375 -88.48875 79.330625 -88 80 C-87.34 80 -86.68 80 -86 80 C-85.71189453 80.90685547 -85.71189453 80.90685547 -85.41796875 81.83203125 C-83.32420051 85.03324716 -80.8902783 85.48223356 -77.3125 86.6875 C-75.51232422 87.31205078 -75.51232422 87.31205078 -73.67578125 87.94921875 C-67.54245579 89.70252858 -61.65583243 90.09086582 -55.32177734 90.23925781 C-29.91010806 90.89884431 -29.91010806 90.89884431 -23.6015625 97.515625 C-22 100 -22 100 -22 102 C-22.99 102 -23.98 102 -25 102 C-25.495 103.485 -25.495 103.485 -26 105 C-35.05390293 105.1610378 -35.05390293 105.1610378 -38.9375 104.5 C-41.68289538 104.05177218 -44.04353637 103.96673918 -46.8125 104 C-66.80923622 104.10882578 -83.71832621 102.06888745 -98.875 87.5625 C-110.3504166 75.43251418 -113.19754004 61.75958328 -113.29516602 45.4440918 C-113.31224475 43.46704778 -113.35611587 41.49029386 -113.40039062 39.51367188 C-113.50693585 23.17946881 -108.49988548 10.17183024 -97.39453125 -1.70703125 C-93.89919998 -5.0541103 -90.19850237 -7.61585044 -86 -10 C-85.319375 -10.38929687 -84.63875 -10.77859375 -83.9375 -11.1796875 C-59.06949853 -24.48795391 -20.19545618 -18.71773988 0 0 Z " fill="#30A17C" transform="translate(141,35)"/>
<path d="M0 0 C2.64 1.32 5.28 2.64 8 4 C8 4.66 8 5.32 8 6 C8.928125 6.28875 9.85625 6.5775 10.8125 6.875 C14 8 14 8 17 10 C17.87890625 11.875 17.87890625 11.875 18.5625 14 C19.46255595 16.76627364 19.89228973 17.89228973 22 20 C23.50976906 26.57495668 23.25931174 33.34676904 23.29516602 40.05737305 C23.30668146 41.55551603 23.3271268 43.05361813 23.35668945 44.55151367 C23.70191382 62.08852594 23.70191382 62.08852594 19 68 C16.8605957 69.22387695 16.8605957 69.22387695 15 70 C15 70.66 15 71.32 15 72 C14.34 72 13.68 72 13 72 C12.9175 72.598125 12.835 73.19625 12.75 73.8125 C11.78423221 76.62932273 10.51131433 77.47799132 8 79 C7.34 79 6.68 79 6 79 C6 79.99 6 80.98 6 82 C7.98 82.99 9.96 83.98 12 85 C12.99 83.515 12.99 83.515 14 82 C14.99 82 15.98 82 17 82 C18.03013277 80.35178756 19.03114628 78.68496298 20 77 C20.66 77 21.32 77 22 77 C22.99 75.02 22.99 75.02 24 73 C24.66 73 25.32 73 26 73 C26 70.36 26 67.72 26 65 C26.99 65 27.98 65 29 65 C29.84143456 54.49582315 30.12862051 44.09562264 30.0625 33.5625 C30.05746421 32.1373714 30.05290506 30.71224104 30.04882812 29.28710938 C30.03801182 25.85803507 30.02086761 22.42902968 30 19 C28.515 18.505 28.515 18.505 27 18 C26.63495397 16.41913952 26.28339494 14.83516093 25.9375 13.25 C25.74027344 12.36828125 25.54304688 11.4865625 25.33984375 10.578125 C25.00174128 8.01320972 25.18841365 6.42908361 26 4 C36.15783692 18.41688804 36.47587789 38.59368079 34.59375 55.65625 C32.33191085 68.68875174 26.52615079 78.89118534 17 88 C16.01 88.66 15.02 89.32 14 90 C14.19078125 90.67804688 14.3815625 91.35609375 14.578125 92.0546875 C16.10796985 98.47647808 16.17273714 102.80838419 13.34765625 108.83203125 C10.75087717 113.00945846 7.71600723 115.42799759 3 117 C2.34 115.68 1.68 114.36 1 113 C3.31 113 5.62 113 8 113 C8.12375 112.2575 8.2475 111.515 8.375 110.75 C9 108 9 108 10.01953125 106.1640625 C12.30965976 101.10935654 11.5636512 94.86709458 10 89.6875 C4.2512218 81.9625793 -2.77589095 79.75258072 -12 78 C-9.08235 79.9451 -7.37462715 80.45276317 -4 81 C-4 81.33 -4 81.66 -4 82 C-9.98993047 82.3152595 -13.63560356 81.68219822 -19 79 C-19 79.66 -19 80.32 -19 81 C-20.65 81 -22.3 81 -24 81 C-24 79.68 -24 78.36 -24 77 C-24.55349121 77.01571045 -25.10698242 77.0314209 -25.67724609 77.04760742 C-45.5722013 77.53825304 -45.5722013 77.53825304 -54 74 C-55.010625 73.731875 -56.02125 73.46375 -57.0625 73.1875 C-59 72 -59 72 -59.8125 68.875 C-59.874375 67.92625 -59.93625 66.9775 -60 66 C-59.443125 66.40992187 -58.88625 66.81984375 -58.3125 67.2421875 C-50.01620423 73.10004499 -43.68472494 74.21668452 -33.70703125 73.984375 C-30.96955138 73.99591338 -28.40979496 74.11830216 -25.69921875 74.390625 C-17.04437921 75.23481409 -11.29659102 75.25864041 -4 70 C-3.34 70 -2.68 70 -2 70 C-2 69.34 -2 68.68 -2 68 C-1.2575 67.484375 -0.515 66.96875 0.25 66.4375 C4.7299141 62.46666705 6.64971522 57.83235996 7.38378906 51.89672852 C7.53670405 48.44322964 7.54580561 45.01891467 7.5 41.5625 C7.51546875 40.39912109 7.5309375 39.23574219 7.546875 38.03710938 C7.50750122 29.29120862 6.28717636 21.86243222 0.5 15.0625 C-0.325 14.381875 -1.15 13.70125 -2 13 C-2.66 12.443125 -3.32 11.88625 -4 11.3125 C-11.50898928 6.38472578 -20.23238274 6.83981974 -28.875 6.875 C-29.81730469 6.87113281 -30.75960937 6.86726563 -31.73046875 6.86328125 C-37.56626029 6.87135288 -43.21211596 7.25125935 -49 8 C-48.67 7.34 -48.34 6.68 -48 6 C-43.77337956 5.01526995 -39.67807558 4.87149616 -35.3515625 4.8671875 C-34.09859375 4.86589844 -32.845625 4.86460938 -31.5546875 4.86328125 C-30.25789063 4.86714844 -28.96109375 4.87101562 -27.625 4.875 C-25.69140625 4.86919922 -25.69140625 4.86919922 -23.71875 4.86328125 C-13.16922416 4.87411239 -13.16922416 4.87411239 -8.2734375 5.5703125 C-4.99945242 6.24259956 -4.99945242 6.24259956 -2 5 C-0.78130071 2.49552484 -0.78130071 2.49552484 0 0 Z " fill="#75C174" transform="translate(120,38)"/>
<path d="M0 0 C3.62025565 4.86471853 3.83533557 10.14336952 3 16 C1.30614451 20.79925722 -1.5721078 24.50931064 -6 27 C-9.97425187 27.90914259 -13.95440547 28.50962491 -18 29 C-17.97679688 29.84304687 -17.95359375 30.68609375 -17.9296875 31.5546875 C-17.90261719 33.19824219 -17.90261719 33.19824219 -17.875 34.875 C-17.85179688 35.96554688 -17.82859375 37.05609375 -17.8046875 38.1796875 C-18 41 -18 41 -20 43 C-22.56640625 43.23046875 -22.56640625 43.23046875 -25.5625 43.1875 C-26.55378906 43.18105469 -27.54507813 43.17460938 -28.56640625 43.16796875 C-31 43 -31 43 -32 42 C-32.17300948 38.95763015 -32.28423771 35.93591915 -32.3515625 32.890625 C-32.37471527 31.97166443 -32.39786804 31.05270386 -32.42172241 30.105896 C-32.46945104 28.15561623 -32.51467397 26.20527382 -32.55761719 24.25488281 C-32.62440693 21.2764476 -32.70228058 18.29844668 -32.78125 15.3203125 C-32.82619483 13.42709921 -32.87048666 11.53387029 -32.9140625 9.640625 C-32.93796051 8.75086975 -32.96185852 7.8611145 -32.98648071 6.94439697 C-33.06972859 2.81241981 -33.07348698 -0.96949719 -32 -5 C-8.26304692 -7.45294428 -8.26304692 -7.45294428 0 0 Z M-18 8 C-18.04254356 9.99954746 -18.04080783 12.00041636 -18 14 C-16.94689723 15.27003323 -16.94689723 15.27003323 -14.5625 15.1875 C-11.83265325 15.26839983 -11.83265325 15.26839983 -10 13 C-10.32041397 10.39719432 -10.32041397 10.39719432 -11 8 C-13.31 8 -15.62 8 -18 8 Z " fill="#378473" transform="translate(107,59)"/>
<path d="M0 0 C1.37478516 0.01740234 1.37478516 0.01740234 2.77734375 0.03515625 C3.69644531 0.04417969 4.61554688 0.05320313 5.5625 0.0625 C6.27277344 0.07410156 6.98304687 0.08570313 7.71484375 0.09765625 C8.04484375 1.08765625 8.37484375 2.07765625 8.71484375 3.09765625 C9.70484375 3.42765625 10.69484375 3.75765625 11.71484375 4.09765625 C11.71484375 5.41765625 11.71484375 6.73765625 11.71484375 8.09765625 C12.37484375 7.76765625 13.03484375 7.43765625 13.71484375 7.09765625 C13.83859375 6.47890625 13.96234375 5.86015625 14.08984375 5.22265625 C14.94348286 2.32028329 16.14742286 1.64424255 18.71484375 0.09765625 C21.29296875 -0.1953125 21.29296875 -0.1953125 23.96484375 -0.08984375 C25.30289063 -0.04923828 25.30289063 -0.04923828 26.66796875 -0.0078125 C27.3434375 0.02699219 28.01890625 0.06179687 28.71484375 0.09765625 C29.20984375 2.57265625 29.20984375 2.57265625 29.71484375 5.09765625 C28.72484375 5.42765625 27.73484375 5.75765625 26.71484375 6.09765625 C24.95352642 8.23081343 24.95352642 8.23081343 23.40234375 10.84765625 C22.84933594 11.70875 22.29632813 12.56984375 21.7265625 13.45703125 C20.43203838 16.06014835 20.43203838 16.06014835 21.4140625 18.6875 C21.84332031 19.48285156 22.27257812 20.27820313 22.71484375 21.09765625 C23.06804687 21.76410156 23.42125 22.43054688 23.78515625 23.1171875 C24.13320312 23.70886719 24.48125 24.30054688 24.83984375 24.91015625 C25.45859375 25.96203125 26.07734375 27.01390625 26.71484375 28.09765625 C27.37484375 28.09765625 28.03484375 28.09765625 28.71484375 28.09765625 C28.75756475 29.7637753 28.75548207 31.4314851 28.71484375 33.09765625 C26.74002612 35.07247388 23.72766579 34.65983625 21.08203125 34.6640625 C17.20095488 33.73542211 15.7816192 31.07993988 13.7109375 27.84765625 C13.38222656 27.27015625 13.05351563 26.69265625 12.71484375 26.09765625 C12.38613281 26.67515625 12.05742188 27.25265625 11.71875 27.84765625 C7.87989229 33.8400195 7.87989229 33.8400195 4.3125 34.62890625 C2.06553992 34.60050865 -0.0674022 34.4524969 -2.28515625 34.09765625 C-3.28515625 32.09765625 -3.28515625 32.09765625 -2.59765625 29.22265625 C-1.22913185 25.96426483 0.12991992 24.44024348 2.71484375 22.09765625 C4.98437522 19.36260119 4.98437522 19.36260119 4.52734375 16.6953125 C3.63922304 13.8558881 2.45447124 11.93968944 0.71484375 9.53515625 C-1.291633 6.75213441 -2.80323961 4.53884227 -3.28515625 1.09765625 C-2.28515625 0.09765625 -2.28515625 0.09765625 0 0 Z " fill="#3C8675" transform="translate(60.28515625,175.90234375)"/>
<path d="M0 0 C2.45601513 2.14901324 2.74055907 3.55022852 3 6.75 C1.02 8.07 -0.96 9.39 -3 10.75 C-2.05125 11.4925 -1.1025 12.235 -0.125 13 C4.14101759 16.60039782 4.14101759 16.60039782 5 19.75 C4.91441395 23.77254412 4.29828007 25.39528856 1.6875 28.5 C-1.21696665 30.9316465 -3.32798744 32.68718736 -7.18359375 32.83203125 C-11.77347961 32.28315409 -15.26334673 31.69402985 -19 28.75 C-21 25.75 -21 25.75 -20.75 23.75 C-20 21.75 -20 21.75 -18 18.75 C-15.375 18.5625 -15.375 18.5625 -13 18.75 C-12.67 19.74 -12.34 20.73 -12 21.75 C-10.35 21.75 -8.7 21.75 -7 21.75 C-9.66236872 19.08763128 -12.32882365 18.69060921 -15.90625 17.7265625 C-18 16.75 -18 16.75 -19.26171875 14.89453125 C-20.82412876 10.35610217 -20.60671702 6.21889383 -18.8125 1.875 C-13.83327598 -3.96271092 -6.48475472 -2.70198113 0 0 Z M-10 7.75 C-9.01 8.74 -8.02 9.73 -7 10.75 C-6.34 10.42 -5.68 10.09 -5 9.75 C-5.66 9.09 -6.32 8.43 -7 7.75 C-7.99 7.75 -8.98 7.75 -10 7.75 Z " fill="#81B1A4" transform="translate(166,178.25)"/>
<path d="M0 0 C1.97119141 -0.34057617 1.97119141 -0.34057617 4.3515625 -0.29296875 C5.62773438 -0.2784668 5.62773438 -0.2784668 6.9296875 -0.26367188 C7.81914063 -0.23853516 8.70859375 -0.21339844 9.625 -0.1875 C10.97078125 -0.16719727 10.97078125 -0.16719727 12.34375 -0.14648438 C14.56309789 -0.11106925 16.78125188 -0.06168461 19 0 C19.33 0.99 19.66 1.98 20 3 C20.66 3 21.32 3 22 3 C22 3.66 22 4.32 22 5 C21.34 5 20.68 5 20 5 C20 6.32 20 7.64 20 9 C16.37 9 12.74 9 9 9 C9 9.66 9 10.32 9 11 C9.63808594 11.06058594 10.27617188 11.12117187 10.93359375 11.18359375 C11.75988281 11.26738281 12.58617188 11.35117188 13.4375 11.4375 C14.67306641 11.55931641 14.67306641 11.55931641 15.93359375 11.68359375 C18 12 18 12 19 13 C19.14115161 15.67058851 19.04247107 18.32432238 19 21 C15.7 21 12.4 21 9 21 C9 21.99 9 22.98 9 24 C12.3 24 15.6 24 19 24 C20.87125129 27.85257619 20.99030231 29.87951136 20 34 C16.68751813 34.02888146 13.37506833 34.04675799 10.0625 34.0625 C9.11697266 34.07087891 8.17144531 34.07925781 7.19726562 34.08789062 C5.84858398 34.09272461 5.84858398 34.09272461 4.47265625 34.09765625 C3.22367554 34.10551147 3.22367554 34.10551147 1.94946289 34.11352539 C0 34 0 34 -1 33 C-1.35597175 28.76573254 -1.46944471 24.5182087 -1.61254883 20.27197266 C-1.68696371 18.14036207 -1.77765974 16.00984368 -1.86914062 13.87890625 C-1.9176713 12.52607733 -1.96522913 11.1732131 -2.01171875 9.8203125 C-2.05772217 8.58555176 -2.10372559 7.35079102 -2.15112305 6.07861328 C-2 3 -2 3 0 0 Z " fill="#3E8574" transform="translate(95,176)"/>
<path d="M0 0 C3.14774846 1.12038504 4.47059137 2.31059079 6.09375 5.21875 C6.90391661 10.5861038 6.68474211 14.6725227 3.90625 19.40625 C1.18945367 21.90276555 -0.80547911 22.7810894 -4.40625 23.53125 C-5.72625 23.20125 -7.04625 22.87125 -8.40625 22.53125 C-8.40625 26.16125 -8.40625 29.79125 -8.40625 33.53125 C-14.4609375 33.7265625 -14.4609375 33.7265625 -16.40625 33.53125 C-20.04032766 29.89717234 -18.99134648 24.09011499 -19.14916992 19.1550293 C-19.21840025 17.10411125 -19.31433895 15.05559054 -19.41210938 13.00585938 C-19.45787109 11.71615234 -19.50363281 10.42644531 -19.55078125 9.09765625 C-19.59565674 7.91115479 -19.64053223 6.72465332 -19.68676758 5.50219727 C-19.40625 2.53125 -19.40625 2.53125 -18.09155273 0.64575195 C-13.44543746 -2.42675511 -5.23914563 -1.02061279 0 0 Z M-8.40625 8.53125 C-8.40625 10.18125 -8.40625 11.83125 -8.40625 13.53125 C-6.75625 13.20125 -5.10625 12.87125 -3.40625 12.53125 C-3.73625 11.21125 -4.06625 9.89125 -4.40625 8.53125 C-5.72625 8.53125 -7.04625 8.53125 -8.40625 8.53125 Z " fill="#3E8876" transform="translate(32.40625,176.46875)"/>
<path d="M0 0 C7.47167253 6.4839461 8.86964553 17.12948424 9.64453125 26.53125 C10.83395472 46.26738134 9.9746731 64.09677398 -3.6875 79.625 C-6.0655829 82.16326465 -8.09606371 84.06404247 -11 86 C-10.80921875 86.67804688 -10.6184375 87.35609375 -10.421875 88.0546875 C-8.89203015 94.47647808 -8.82726286 98.80838419 -11.65234375 104.83203125 C-14.24912283 109.00945846 -17.28399277 111.42799759 -22 113 C-22.66 111.68 -23.32 110.36 -24 109 C-21.69 109 -19.38 109 -17 109 C-16.87625 108.2575 -16.7525 107.515 -16.625 106.75 C-16 104 -16 104 -14.98046875 102.1640625 C-12.69034024 97.10935654 -13.4363488 90.86709458 -15 85.6875 C-17.76569773 81.97109367 -21.17508908 79.56205434 -25 77 C-24.01 76.505 -24.01 76.505 -23 76 C-20.6171875 76.99609375 -20.6171875 76.99609375 -17.875 78.4375 C-16.50988281 79.14712891 -16.50988281 79.14712891 -15.1171875 79.87109375 C-14.41851562 80.24363281 -13.71984375 80.61617188 -13 81 C-12.34 80.01 -11.68 79.02 -11 78 C-10.01 78 -9.02 78 -8 78 C-6.96986723 76.35178756 -5.96885372 74.68496298 -5 73 C-4.34 73 -3.68 73 -3 73 C-2.34 71.68 -1.68 70.36 -1 69 C-0.34 69 0.32 69 1 69 C1 66.36 1 63.72 1 61 C1.99 61 2.98 61 4 61 C4.84143456 50.49582315 5.12862051 40.09562264 5.0625 29.5625 C5.05746421 28.1373714 5.05290506 26.71224104 5.04882812 25.28710938 C5.03801182 21.85803507 5.02086761 18.42902968 5 15 C4.01 14.67 3.02 14.34 2 14 C1.66179834 12.4176994 1.32964061 10.83410625 1 9.25 C0.814375 8.36828125 0.62875 7.4865625 0.4375 6.578125 C0 4 0 4 0 0 Z " fill="#6FB98E" transform="translate(145,42)"/>
<path d="M0 0 C2.7427508 -0.47114738 5.19558897 -0.17805784 8 0 C9 1 9 1 9.11352539 3.22485352 C9.10828857 4.18319092 9.10305176 5.14152832 9.09765625 6.12890625 C9.09443359 7.16337891 9.09121094 8.19785156 9.08789062 9.26367188 C9.07951172 10.35228516 9.07113281 11.44089844 9.0625 12.5625 C9.05798828 13.65498047 9.05347656 14.74746094 9.04882812 15.87304688 C9.0369984 18.58205432 9.01906231 21.2910338 9 24 C12.63 24 16.26 24 20 24 C20.09765625 30.93359375 20.09765625 30.93359375 20 33 C18.44393249 34.55606751 16.94042629 34.12970769 14.78125 34.1328125 C13.50701172 34.13474609 13.50701172 34.13474609 12.20703125 34.13671875 C10.86705078 34.13091797 10.86705078 34.13091797 9.5 34.125 C8.60667969 34.12886719 7.71335938 34.13273437 6.79296875 34.13671875 C5.94347656 34.13542969 5.09398438 34.13414062 4.21875 34.1328125 C3.43435547 34.13168457 2.64996094 34.13055664 1.84179688 34.12939453 C0 34 0 34 -1 33 C-1.35597175 28.76573254 -1.46944471 24.5182087 -1.61254883 20.27197266 C-1.68696371 18.14036207 -1.77765974 16.00984368 -1.86914062 13.87890625 C-1.9176713 12.52607733 -1.96522913 11.1732131 -2.01171875 9.8203125 C-2.05772217 8.58555176 -2.10372559 7.35079102 -2.15112305 6.07861328 C-2 3 -2 3 0 0 Z " fill="#6EA798" transform="translate(122,176)"/>
<path d="M0 0 C1.9453125 -0.29296875 1.9453125 -0.29296875 4.125 -0.1875 C5.40375 -0.125625 6.6825 -0.06375 8 0 C10.22265169 3.55255005 10.17861982 6.31166101 10.01171875 10.4453125 C9.94114258 12.30736328 9.94114258 12.30736328 9.86914062 14.20703125 C9.80919922 15.49996094 9.74925781 16.79289062 9.6875 18.125 C9.63916016 19.42566406 9.59082031 20.72632813 9.54101562 22.06640625 C9.14460211 31.71079578 9.14460211 31.71079578 8 34 C1.84765625 34.09765625 1.84765625 34.09765625 0 34 C-2.64531514 31.35468486 -1.48455702 24.06979109 -1.61254883 20.27197266 C-1.68696371 18.14036207 -1.77765974 16.00984368 -1.86914062 13.87890625 C-1.9176713 12.52607733 -1.96522913 11.1732131 -2.01171875 9.8203125 C-2.05772217 8.58555176 -2.10372559 7.35079102 -2.15112305 6.07861328 C-2 3 -2 3 0 0 Z " fill="#3F8776" transform="translate(44,176)"/>
<path d="M0 0 C3.62025565 4.86471853 3.83533557 10.14336952 3 16 C1.30614451 20.79925722 -1.5721078 24.50931064 -6 27 C-9.97425187 27.90914259 -13.95440547 28.50962491 -18 29 C-17.97679688 29.84304687 -17.95359375 30.68609375 -17.9296875 31.5546875 C-17.90261719 33.19824219 -17.90261719 33.19824219 -17.875 34.875 C-17.85179688 35.96554688 -17.82859375 37.05609375 -17.8046875 38.1796875 C-18 41 -18 41 -20 43 C-22.56640625 43.23046875 -22.56640625 43.23046875 -25.5625 43.1875 C-26.55378906 43.18105469 -27.54507813 43.17460938 -28.56640625 43.16796875 C-31 43 -31 43 -32 42 C-32.17300948 38.95763015 -32.28423771 35.93591915 -32.3515625 32.890625 C-32.37471527 31.97166443 -32.39786804 31.05270386 -32.42172241 30.105896 C-32.46945104 28.15561623 -32.51467397 26.20527382 -32.55761719 24.25488281 C-32.62440693 21.2764476 -32.70228058 18.29844668 -32.78125 15.3203125 C-32.82619483 13.42709921 -32.87048666 11.53387029 -32.9140625 9.640625 C-32.93796051 8.75086975 -32.96185852 7.8611145 -32.98648071 6.94439697 C-33.06972859 2.81241981 -33.07348698 -0.96949719 -32 -5 C-8.26304692 -7.45294428 -8.26304692 -7.45294428 0 0 Z M-31 -4 C-30.67 10.85 -30.34 25.7 -30 41 C-26.7 41 -23.4 41 -20 41 C-20 36.38 -20 31.76 -20 27 C-18.494375 27.0825 -16.98875 27.165 -15.4375 27.25 C-10.02534266 27.2423449 -7.34045592 26.21193738 -3 23 C0.36458748 19.36978719 1.7928904 16.76043164 2.375 11.8125 C1.89712343 6.95408822 0.34609893 3.56672084 -3 0 C-11.69514137 -5.73648628 -11.69514137 -5.73648628 -31 -4 Z " fill="#B7D7CC" transform="translate(107,59)"/>
<path d="M0 0 C1.97119141 -0.34057617 1.97119141 -0.34057617 4.3515625 -0.29296875 C5.62773438 -0.2784668 5.62773438 -0.2784668 6.9296875 -0.26367188 C7.81914063 -0.23853516 8.70859375 -0.21339844 9.625 -0.1875 C10.97078125 -0.16719727 10.97078125 -0.16719727 12.34375 -0.14648438 C14.56309789 -0.11106925 16.78125188 -0.06168461 19 0 C19.33 0.99 19.66 1.98 20 3 C20.66 3 21.32 3 22 3 C22 3.66 22 4.32 22 5 C21.34 5 20.68 5 20 5 C20 6.32 20 7.64 20 9 C16.37 9 12.74 9 9 9 C9 9.66 9 10.32 9 11 C9.63808594 11.06058594 10.27617188 11.12117187 10.93359375 11.18359375 C11.75988281 11.26738281 12.58617188 11.35117188 13.4375 11.4375 C14.67306641 11.55931641 14.67306641 11.55931641 15.93359375 11.68359375 C18 12 18 12 19 13 C19.14115161 15.67058851 19.04247107 18.32432238 19 21 C15.7 21 12.4 21 9 21 C9 21.99 9 22.98 9 24 C12.3 24 15.6 24 19 24 C20.87125129 27.85257619 20.99030231 29.87951136 20 34 C16.68751813 34.02888146 13.37506833 34.04675799 10.0625 34.0625 C9.11697266 34.07087891 8.17144531 34.07925781 7.19726562 34.08789062 C5.84858398 34.09272461 5.84858398 34.09272461 4.47265625 34.09765625 C3.22367554 34.10551147 3.22367554 34.10551147 1.94946289 34.11352539 C0 34 0 34 -1 33 C-1.35597175 28.76573254 -1.46944471 24.5182087 -1.61254883 20.27197266 C-1.68696371 18.14036207 -1.77765974 16.00984368 -1.86914062 13.87890625 C-1.9176713 12.52607733 -1.96522913 11.1732131 -2.01171875 9.8203125 C-2.05772217 8.58555176 -2.10372559 7.35079102 -2.15112305 6.07861328 C-2 3 -2 3 0 0 Z M0 2 C0 11.9 0 21.8 0 32 C6.27 32 12.54 32 19 32 C19 30.02 19 28.04 19 26 C15.04 26 11.08 26 7 26 C7 24.02 7 22.04 7 20 C10.63 20 14.26 20 18 20 C18 18.02 18 16.04 18 14 C14.37 14 10.74 14 7 14 C7 12.02 7 10.04 7 8 C10.96 8 14.92 8 19 8 C19 6.02 19 4.04 19 2 C12.73 2 6.46 2 0 2 Z " fill="#C6E1D5" transform="translate(95,176)"/>
<path d="M0 0 C0.6875 1.625 0.6875 1.625 1 4 C0.01789629 6.0088485 -0.98440599 8.00787329 -2 10 C-2.98253688 15.22126302 -3.13397327 20.27193348 -3.09765625 25.55859375 C-3.0962413 26.34774673 -3.09482635 27.13689972 -3.09336853 27.94996643 C-3.08781555 30.44585115 -3.07527208 32.94164285 -3.0625 35.4375 C-3.05747891 37.13997265 -3.05291707 38.84244673 -3.04882812 40.54492188 C-3.03786158 44.69664988 -3.02062991 48.84830922 -3 53 C-2.34 53.33 -1.68 53.66 -1 54 C-0.5859375 56.06640625 -0.5859375 56.06640625 -0.375 58.5625 C-0.30023438 59.38878906 -0.22546875 60.21507812 -0.1484375 61.06640625 C-0.07496094 62.02353516 -0.07496094 62.02353516 0 63 C0.99 63.33 1.98 63.66 3 64 C4.60650951 67.21301903 5.51938371 70.44343948 6 74 C5.505 74.99 5.505 74.99 5 76 C-4.67851183 63.46687092 -7.20172631 52.05996434 -7.29516602 36.4440918 C-7.31224475 34.46704778 -7.35611587 32.49029386 -7.40039062 30.51367188 C-7.47401211 19.22693175 -5.19050061 10.00673538 0 0 Z " fill="#93B9AF" transform="translate(35,44)"/>
<path d="M0 0 C3.125 1.8125 3.125 1.8125 5 4 C5 4.99 5 5.98 5 7 C1.54785147 9.30143236 0.76520676 9.13833854 -3.1875 8.625 C-4.08855469 8.51414063 -4.98960937 8.40328125 -5.91796875 8.2890625 C-6.60503906 8.19367188 -7.29210937 8.09828125 -8 8 C-8 8.99 -8 9.98 -8 11 C-7.34 11 -6.68 11 -6 11 C-6 11.66 -6 12.32 -6 13 C-5.01 13.33 -4.02 13.66 -3 14 C-3.66 14 -4.32 14 -5 14 C-5 14.66 -5 15.32 -5 16 C-6.65 16 -8.3 16 -10 16 C-10.33 15.01 -10.66 14.02 -11 13 C-13.01508358 12.26676204 -13.01508358 12.26676204 -15 12 C-15.17758833 8.09305679 -15.23513741 5.29388671 -13 2 C-8.75974926 -0.82683382 -4.9795067 -0.65811952 0 0 Z " fill="#3E8675" transform="translate(162,178)"/>
<path d="M0 0 C3.14774846 1.12038504 4.47059137 2.31059079 6.09375 5.21875 C6.90391661 10.5861038 6.68474211 14.6725227 3.90625 19.40625 C1.18945367 21.90276555 -0.80547911 22.7810894 -4.40625 23.53125 C-5.72625 23.20125 -7.04625 22.87125 -8.40625 22.53125 C-8.40625 26.16125 -8.40625 29.79125 -8.40625 33.53125 C-14.4609375 33.7265625 -14.4609375 33.7265625 -16.40625 33.53125 C-20.04032766 29.89717234 -18.99134648 24.09011499 -19.14916992 19.1550293 C-19.21840025 17.10411125 -19.31433895 15.05559054 -19.41210938 13.00585938 C-19.45787109 11.71615234 -19.50363281 10.42644531 -19.55078125 9.09765625 C-19.59565674 7.91115479 -19.64053223 6.72465332 -19.68676758 5.50219727 C-19.40625 2.53125 -19.40625 2.53125 -18.09155273 0.64575195 C-13.44543746 -2.42675511 -5.23914563 -1.02061279 0 0 Z M-16.40625 1.53125 C-16.40625 11.43125 -16.40625 21.33125 -16.40625 31.53125 C-14.09625 31.53125 -11.78625 31.53125 -9.40625 31.53125 C-9.40625 28.23125 -9.40625 24.93125 -9.40625 21.53125 C-8.33375 21.5725 -7.26125 21.61375 -6.15625 21.65625 C-1.92155102 21.51881976 -1.92155102 21.51881976 1.59375 19.53125 C4.26594451 16.54156703 5.04493804 14.53383102 5.09375 10.53125 C5.1246875 9.685625 5.155625 8.84 5.1875 7.96875 C4.74880413 5.35136527 4.74880413 5.35136527 2.58203125 3.234375 C-1.35819714 0.98870235 -4.28607369 1.07686668 -8.71875 1.28125 C-11.255625 1.36375 -13.7925 1.44625 -16.40625 1.53125 Z " fill="#B6D4C7" transform="translate(32.40625,176.46875)"/>
<path d="M0 0 C0.556875 0.40992187 1.11375 0.81984375 1.6875 1.2421875 C9.98829306 7.10322044 16.29663312 8.17927961 26.26953125 8.00390625 C32.01113173 7.9978941 37.71814133 8.40798561 43.4453125 8.78125 C45.62729706 8.91552597 47.81388778 9 50 9 C51.74767967 9.61650432 53.47616924 10.28879761 55.1875 11 C56.08855469 11.37125 56.98960938 11.7425 57.91796875 12.125 C58.60503906 12.41375 59.29210937 12.7025 60 13 C56.70303895 14.09898702 55.59505097 13.87124444 52.3125 13.0625 C51.50425781 12.86785156 50.69601563 12.67320313 49.86328125 12.47265625 C49.24839844 12.31667969 48.63351563 12.16070312 48 12 C50.91765 13.9451 52.62537285 14.45276317 56 15 C56 15.33 56 15.66 56 16 C50.01006953 16.3152595 46.36439644 15.68219822 41 13 C41 13.66 41 14.32 41 15 C39.35 15 37.7 15 36 15 C36 13.68 36 12.36 36 11 C35.44650879 11.01571045 34.89301758 11.0314209 34.32275391 11.04760742 C14.4277987 11.53825304 14.4277987 11.53825304 6 8 C4.989375 7.731875 3.97875 7.46375 2.9375 7.1875 C1 6 1 6 0.1875 2.875 C0.125625 1.92625 0.06375 0.9775 0 0 Z " fill="#A1D8B5" transform="translate(60,104)"/>
<path d="M0 0 C0.99 0 1.98 0 3 0 C1.85703914 2.28592173 0.70293821 4.55699086 -0.5 6.8125 C-4.10112108 14.46488229 -4.48331711 21.98269776 -4.74291992 30.27832031 C-4.81212852 32.36380601 -4.90827947 34.44692351 -5.00585938 36.53125 C-5.29409068 44.0078563 -4.97431997 50.06760564 -2 57 C-3.485 57.495 -3.485 57.495 -5 58 C-5.4640625 56.329375 -5.4640625 56.329375 -5.9375 54.625 C-6.82326483 51.2054845 -6.82326483 51.2054845 -8 49 C-8.21234109 44.64754287 -8.18579439 40.29114383 -8.18530273 35.93408203 C-8.18747761 33.77225722 -8.2056035 31.61095246 -8.22460938 29.44921875 C-8.22754581 28.0651059 -8.22952893 26.68099064 -8.23046875 25.296875 C-8.23457764 24.04229492 -8.23868652 22.78771484 -8.24291992 21.49511719 C-7.999025 17.98597169 -7.22484657 15.27924698 -6 12 C-5.7834375 10.6696875 -5.7834375 10.6696875 -5.5625 9.3125 C-4.90604889 6.61375655 -4.00663787 5.84610684 -2 4 C-0.82425289 1.90010348 -0.82425289 1.90010348 0 0 Z " fill="#129879" transform="translate(47,47)"/>
<path d="M0 0 C1.32 0.66 2.64 1.32 4 2 C4.78530425 10.98737084 4.78530425 10.98737084 1.625 15.0625 C-2.51744276 18.12001727 -4.86215623 18.09514525 -10 18 C-9.01 17.34 -8.02 16.68 -7 16 C-7 15.34 -7 14.68 -7 14 C-7.99 13.4121875 -7.99 13.4121875 -9 12.8125 C-11 11 -11 11 -11.25 7.3125 C-11.1675 6.219375 -11.085 5.12625 -11 4 C-8.36 4 -5.72 4 -3 4 C-3 3.34 -3 2.68 -3 2 C-2.01 2 -1.02 2 0 2 C0 1.34 0 0.68 0 0 Z M-9 5 C-9 6.65 -9 8.3 -9 10 C-7.35 9.67 -5.7 9.34 -4 9 C-4.33 7.68 -4.66 6.36 -5 5 C-6.32 5 -7.64 5 -9 5 Z " fill="#408777" transform="translate(33,180)"/>
<path d="M0 0 C0.36681223 7.45851528 0.36681223 7.45851528 -1.3125 9.9375 C-5.12574367 12.3384312 -8.61560748 12.22677892 -13 12 C-16.86165366 10.88441117 -17.71497149 10.42754276 -20 7 C-19.625 4.8125 -19.625 4.8125 -19 3 C-15.01803543 1.94595055 -12.01804691 2.15901344 -8 3 C-8 2.34 -8 1.68 -8 1 C-7.01 1 -6.02 1 -5 1 C-4.67 2.32 -4.34 3.64 -4 5 C-3.87625 4.360625 -3.7525 3.72125 -3.625 3.0625 C-3.315625 2.0415625 -3.315625 2.0415625 -3 1 C-1 0 -1 0 0 0 Z " fill="#5A9687" transform="translate(167,197)"/>
<path d="M0 0 C1.37478516 0.01740234 1.37478516 0.01740234 2.77734375 0.03515625 C3.69644531 0.04417969 4.61554688 0.05320313 5.5625 0.0625 C6.27277344 0.07410156 6.98304687 0.08570313 7.71484375 0.09765625 C8.04484375 1.08765625 8.37484375 2.07765625 8.71484375 3.09765625 C9.70484375 3.42765625 10.69484375 3.75765625 11.71484375 4.09765625 C11.71484375 5.41765625 11.71484375 6.73765625 11.71484375 8.09765625 C12.37484375 7.76765625 13.03484375 7.43765625 13.71484375 7.09765625 C13.83859375 6.47890625 13.96234375 5.86015625 14.08984375 5.22265625 C14.94348286 2.32028329 16.14742286 1.64424255 18.71484375 0.09765625 C21.29296875 -0.1953125 21.29296875 -0.1953125 23.96484375 -0.08984375 C25.30289063 -0.04923828 25.30289063 -0.04923828 26.66796875 -0.0078125 C27.3434375 0.02699219 28.01890625 0.06179687 28.71484375 0.09765625 C29.20984375 2.57265625 29.20984375 2.57265625 29.71484375 5.09765625 C28.72484375 5.42765625 27.73484375 5.75765625 26.71484375 6.09765625 C25.06352092 8.274666 25.06352092 8.274666 23.58984375 10.91015625 C22.81253906 12.21919922 22.81253906 12.21919922 22.01953125 13.5546875 C20.87575055 15.78403252 20.18227566 17.6521893 19.71484375 20.09765625 C18.71484375 19.09765625 18.71484375 19.09765625 18.40234375 16.9296875 C18.82800255 13.07215459 20.49545141 10.94085473 22.71484375 7.78515625 C23.45734375 6.71652344 24.19984375 5.64789063 24.96484375 4.546875 C25.54234375 3.73863281 26.11984375 2.93039063 26.71484375 2.09765625 C22.61988115 2.16423003 22.61988115 2.16423003 18.71484375 3.09765625 C17.07900911 4.82483191 15.97644186 6.52720766 14.8203125 8.6015625 C14.45550781 9.09527344 14.09070313 9.58898437 13.71484375 10.09765625 C10.71484375 10.09765625 10.71484375 10.09765625 9.08984375 8.91015625 C7.40072319 6.68358824 7.08531493 4.83914297 6.71484375 2.09765625 C4.07484375 2.09765625 1.43484375 2.09765625 -1.28515625 2.09765625 C-0.29322266 3.52658203 -0.29322266 3.52658203 0.71875 4.984375 C1.57239729 6.25077483 2.42521899 7.51773145 3.27734375 8.78515625 C3.93379883 9.72391602 3.93379883 9.72391602 4.60351562 10.68164062 C7.76467751 15.43582897 7.76467751 15.43582897 7.4921875 19.0546875 C7.23566406 19.72886719 6.97914062 20.40304688 6.71484375 21.09765625 C5.72484375 21.42765625 4.73484375 21.75765625 3.71484375 22.09765625 C4.02421875 21.14890625 4.33359375 20.20015625 4.65234375 19.22265625 C5.28964873 15.15880243 3.69576466 13.14894772 1.33984375 9.91015625 C0.36917969 8.68232422 0.36917969 8.68232422 -0.62109375 7.4296875 C-2.20275536 5.21313355 -2.96395594 3.78027361 -3.28515625 1.09765625 C-2.28515625 0.09765625 -2.28515625 0.09765625 0 0 Z " fill="#B8D4CA" transform="translate(60.28515625,175.90234375)"/>
<path d="M0 0 C2.61155825 2.52150452 4.82573461 5.10097947 7 8 C7.33 8 7.66 8 8 8 C8.042721 9.66611905 8.04063832 11.33382885 8 13 C6.02518237 14.97481763 3.01282204 14.56218 0.3671875 14.56640625 C-3.51388887 13.63776586 -4.93322455 10.98228363 -7.00390625 7.75 C-7.33261719 7.1725 -7.66132812 6.595 -8 6 C-8.32871094 6.5775 -8.65742187 7.155 -8.99609375 7.75 C-12.83495146 13.74236325 -12.83495146 13.74236325 -16.40234375 14.53125 C-18.64930383 14.5028524 -20.78224595 14.35484065 -23 14 C-24 12 -24 12 -23.375 9.125 C-21.81212182 5.57300413 -20.16503961 4.16555342 -17 2 C-17.3125 4.375 -17.3125 4.375 -18 7 C-18.99 7.66 -19.98 8.32 -21 9 C-21.33 9.99 -21.66 10.98 -22 12 C-17.89918577 11.94539838 -17.89918577 11.94539838 -14 11 C-12.05416558 8.77618924 -11.20110988 6.75254348 -10 4 C-8.68 4 -7.36 4 -6 4 C-5.01 5.485 -5.01 5.485 -4 7 C-2.68 7 -1.36 7 0 7 C0 4.69 0 2.38 0 0 Z " fill="#629B8E" transform="translate(81,196)"/>
<path d="M0 0 C1.9453125 -0.29296875 1.9453125 -0.29296875 4.125 -0.1875 C5.40375 -0.125625 6.6825 -0.06375 8 0 C10.22265169 3.55255005 10.17861982 6.31166101 10.01171875 10.4453125 C9.94114258 12.30736328 9.94114258 12.30736328 9.86914062 14.20703125 C9.80919922 15.49996094 9.74925781 16.79289062 9.6875 18.125 C9.63916016 19.42566406 9.59082031 20.72632813 9.54101562 22.06640625 C9.14460211 31.71079578 9.14460211 31.71079578 8 34 C1.84765625 34.09765625 1.84765625 34.09765625 0 34 C-2.64531514 31.35468486 -1.48455702 24.06979109 -1.61254883 20.27197266 C-1.68696371 18.14036207 -1.77765974 16.00984368 -1.86914062 13.87890625 C-1.9176713 12.52607733 -1.96522913 11.1732131 -2.01171875 9.8203125 C-2.05772217 8.58555176 -2.10372559 7.35079102 -2.15112305 6.07861328 C-2 3 -2 3 0 0 Z M0 2 C0 11.9 0 21.8 0 32 C2.31 32 4.62 32 7 32 C7 22.1 7 12.2 7 2 C4.69 2 2.38 2 0 2 Z " fill="#C5E0D6" transform="translate(44,176)"/>
<path d="M0 0 C5.90158017 1.32785554 10.34306052 4.221045 14 9 C16.34543022 14.95571745 16.62972606 20.39124382 14.5 26.4375 C12.39578943 30.87417449 10.08124253 33.30811663 6 36 C4.515 36.495 4.515 36.495 3 37 C2.34 35.68 1.68 34.36 1 33 C3.31 33 5.62 33 8 33 C8.12375 32.2575 8.2475 31.515 8.375 30.75 C9 28 9 28 10.01953125 26.1640625 C12.30965976 21.10935654 11.5636512 14.86709458 10 9.6875 C7.60667167 6.47146506 4.93219526 4.45615566 1.64453125 2.19921875 C1.10183594 1.80347656 0.55914062 1.40773438 0 1 C0 0.67 0 0.34 0 0 Z " fill="#A1D19F" transform="translate(120,118)"/>
<path d="M0 0 C3 1 3 1 4.09765625 2.8125 C4.41605469 3.534375 4.73445313 4.25625 5.0625 5 C6.32230077 8.1514696 6.32230077 8.1514696 9 10 C9.33 9.34 9.66 8.68 10 8 C9.41196203 11.02419525 8.77321882 14.01758453 8 17 C2.375 18.125 2.375 18.125 -1 17 C-1.391875 16.2575 -1.78375 15.515 -2.1875 14.75 C-4.42322001 11.35787308 -6.87495361 9.99732371 -10.35546875 8.015625 C-10.89816406 7.68046875 -11.44085938 7.3453125 -12 7 C-12 6.67 -12 6.34 -12 6 C-9.69 6 -7.38 6 -5 6 C-5 5.34 -5 4.68 -5 4 C-4.01 4 -3.02 4 -2 4 C-2.185625 4.763125 -2.37125 5.52625 -2.5625 6.3125 C-3.22819173 9.08967375 -3.22819173 9.08967375 -2 12 C-1.34 12 -0.68 12 0 12 C0 12.99 0 13.98 0 15 C0.99 15 1.98 15 3 15 C2.67 10.71 2.34 6.42 2 2 C1.34 2 0.68 2 0 2 C0 1.34 0 0.68 0 0 Z " fill="#4EB276" transform="translate(120,134)"/>
<path d="M0 0 C6.64264431 5.76451223 8.4735828 14.82677561 9.33349609 23.27734375 C10.78229569 44.55383282 10.78229569 44.55383282 9 54 C8.67 54 8.34 54 8 54 C7.970271 52.92069214 7.970271 52.92069214 7.93994141 51.81958008 C7.55644192 33.3038591 7.55644192 33.3038591 5 15 C4.01 14.67 3.02 14.34 2 14 C1.66179834 12.4176994 1.32964061 10.83410625 1 9.25 C0.814375 8.36828125 0.62875 7.4865625 0.4375 6.578125 C0 4 0 4 0 0 Z " fill="#A9D6B8" transform="translate(145,42)"/>
<path d="M0 0 C0.33 0 0.66 0 1 0 C1.268125 0.94875 1.53625 1.8975 1.8125 2.875 C2.74986588 6.25267273 2.74986588 6.25267273 6 8 C5.67 8.66 5.34 9.32 5 10 C5.99 10.33 6.98 10.66 8 11 C6.02 11.33 4.04 11.66 2 12 C1.67 14.97 1.34 17.94 1 21 C-0.65 21 -2.3 21 -4 21 C-4.0810206 18.89646505 -4.13919907 16.79204048 -4.1875 14.6875 C-4.22230469 13.51574219 -4.25710937 12.34398437 -4.29296875 11.13671875 C-4 8 -4 8 -2.53125 6.25 C-2.0259375 5.8375 -1.520625 5.425 -1 5 C-0.27802838 2.39388923 -0.27802838 2.39388923 0 0 Z " fill="#32806F" transform="translate(21,186)"/>
<path d="M0 0 C3.37534275 1.37278091 4.6632735 2.5776937 6.1875 5.875 C6.67283203 6.89207031 6.67283203 6.89207031 7.16796875 7.9296875 C9.49539112 13.72092626 9.22019742 19.46331612 9.25 25.625 C9.270625 26.66785156 9.29125 27.71070313 9.3125 28.78515625 C9.34580253 35.45398743 8.94529034 41.89991528 6 48 C5.01 48.66 4.02 49.32 3 50 C3.48597656 48.79214844 3.97195312 47.58429688 4.47265625 46.33984375 C6.53619225 40.12248397 6.47696057 34.05914497 6.4375 27.5625 C6.45748047 26.39912109 6.47746094 25.23574219 6.49804688 24.03710938 C6.49381188 16.51151585 5.37701753 10.7266813 2 4 C1.62673584 3.24920166 1.25347168 2.49840332 0.86889648 1.72485352 C0.58216064 1.15565186 0.2954248 0.5864502 0 0 Z " fill="#D7EFCE" transform="translate(121,52)"/>
<path d="M0 0 C3.96 0 7.92 0 12 0 C12 2.64 12 5.28 12 8 C8.7 8 5.4 8 2 8 C2 8.99 2 9.98 2 11 C5.3 11 8.6 11 12 11 C13.79682816 14.80504787 14.07349791 15.70600835 13 20 C6.73 20 0.46 20 -6 20 C-6 19.67 -6 19.34 -6 19 C-0.06 19 5.88 19 12 19 C12 17.02 12 15.04 12 13 C8.04 13 4.08 13 0 13 C0 11.02 0 9.04 0 7 C3.63 7 7.26 7 11 7 C11 5.02 11 3.04 11 1 C7.37 1 3.74 1 0 1 C0 0.67 0 0.34 0 0 Z " fill="#ADCEC3" transform="translate(102,189)"/>
<path d="M0 0 C3.32250187 4.9837528 2.37185806 10.99147019 2.37060547 16.83105469 C2.37494538 19.09648715 2.41117088 21.35991658 2.44921875 23.625 C2.56858014 38.78557196 2.56858014 38.78557196 -2 45 C-2.99 45.66 -3.98 46.32 -5 47 C-4.50015752 44.89487677 -3.94892683 42.84531099 -3.27026367 40.78979492 C-0.60281649 32.35703378 -0.44833123 24.06139948 -0.3125 15.3125 C-0.27924597 13.82093512 -0.24474918 12.32939741 -0.20898438 10.83789062 C-0.12502084 7.2254602 -0.0577843 3.6129553 0 0 Z " fill="#58B372" transform="translate(141,61)"/>
<path d="M0 0 C0 0.66 0 1.32 0 2 C0.99 2 1.98 2 3 2 C5.1875 4.5 5.1875 4.5 7 7 C4 7 4 7 2 6 C2 5.34 2 4.68 2 4 C1.21625 3.773125 0.4325 3.54625 -0.375 3.3125 C-3.36723882 2.22910318 -5.64624665 1.06258004 -8.375 -0.5 C-15.16526383 -4.03052061 -22.49050339 -4.37576145 -30 -5 C-30 -5.33 -30 -5.66 -30 -6 C-18.97260728 -7.36912298 -8.93517749 -7.8054424 0 0 Z " fill="#49B276" transform="translate(126,38)"/>
<path d="M0 0 C4.95 0 9.9 0 15 0 C15.33 1.32 15.66 2.64 16 4 C14.75283203 4.00386719 14.75283203 4.00386719 13.48046875 4.0078125 C10.21814355 4.12390948 7.192901 4.3092908 4 5 C1.60751405 7.85602535 1.60751405 7.85602535 1 11 C0.34 10.34 -0.32 9.68 -1 9 C-0.96692593 5.94616121 -0.43304158 3.03129104 0 0 Z " fill="#2F816F" transform="translate(97,179)"/>
<path d="M0 0 C0.33 0 0.66 0 1 0 C1.01458252 0.89195068 1.02916504 1.78390137 1.04418945 2.70288086 C1.10570661 6.0524139 1.17993981 9.40118709 1.26245117 12.75024414 C1.29544593 14.1921957 1.32355477 15.63426852 1.34643555 17.07641602 C1.47856387 25.18684616 1.83150002 32.39729898 5 40 C3.515 40.495 3.515 40.495 2 41 C1.5359375 39.329375 1.5359375 39.329375 1.0625 37.625 C0.17673517 34.2054845 0.17673517 34.2054845 -1 32 C-1.09787095 29.68784489 -1.13077623 27.37281842 -1.1328125 25.05859375 C-1.13376923 24.37571793 -1.13472595 23.6928421 -1.13571167 22.98927307 C-1.13639223 21.54598905 -1.1345466 20.10270197 -1.13037109 18.65942383 C-1.12501282 16.44280172 -1.13032443 14.22638148 -1.13671875 12.00976562 C-1.13605811 10.60937455 -1.13477723 9.2089836 -1.1328125 7.80859375 C-1.13168457 6.52782959 -1.13055664 5.24706543 -1.12939453 3.92749023 C-1 1 -1 1 0 0 Z " fill="#1C8E76" transform="translate(40,64)"/>
<path d="M0 0 C8.4689565 0.98211428 8.4689565 0.98211428 12.01171875 4.08203125 C12.82421875 6.76953125 12.82421875 6.76953125 13.01171875 9.08203125 C11.03171875 10.40203125 9.05171875 11.72203125 7.01171875 13.08203125 C8.99171875 14.73203125 10.97171875 16.38203125 13.01171875 18.08203125 C12.68171875 18.74203125 12.35171875 19.40203125 12.01171875 20.08203125 C11.62371094 19.64246094 11.23570312 19.20289063 10.8359375 18.75 C8.6625527 16.76277235 6.47511124 15.66833673 3.82421875 14.39453125 C2.92316406 13.95753906 2.02210938 13.52054688 1.09375 13.0703125 C0.40667969 12.74417969 -0.28039062 12.41804687 -0.98828125 12.08203125 C-0.98828125 11.09203125 -0.98828125 10.10203125 -0.98828125 9.08203125 C1.52395531 9.0122469 3.69760861 8.99888445 6.13671875 9.64453125 C8.22055116 10.30326743 8.22055116 10.30326743 11.01171875 9.08203125 C9.64188372 5.92087349 9.02265495 5.08932205 6.01171875 3.08203125 C3.50275189 2.62601864 3.50275189 2.62601864 0.82421875 2.45703125 C-0.07683594 2.38226563 -0.97789062 2.3075 -1.90625 2.23046875 C-2.59332031 2.18148437 -3.28039062 2.1325 -3.98828125 2.08203125 C-1.98828125 0.08203125 -1.98828125 0.08203125 0 0 Z M0.01171875 10.08203125 C1.00171875 11.07203125 1.99171875 12.06203125 3.01171875 13.08203125 C3.67171875 12.75203125 4.33171875 12.42203125 5.01171875 12.08203125 C4.35171875 11.42203125 3.69171875 10.76203125 3.01171875 10.08203125 C2.02171875 10.08203125 1.03171875 10.08203125 0.01171875 10.08203125 Z " fill="#CAE5DA" transform="translate(155.98828125,175.91796875)"/>
<path d="M0 0 C4.69002545 0.51038512 7.61451359 1.72884977 11.5 4.375 C14.44994962 6.3456303 17.14952071 8.06922255 20.375 9.5625 C23.8825601 11.48330672 25.59839023 13.82139884 28 17 C27.67 17.66 27.34 18.32 27 19 C26.01 18.34 25.02 17.68 24 17 C23.34 17 22.68 17 22 17 C22 16.01 22 15.02 22 14 C21.1028125 13.8453125 21.1028125 13.8453125 20.1875 13.6875 C17.66608978 12.89505679 16.80534232 11.88056492 15 10 C13.67479497 9.31731862 12.34187818 8.6492959 11 8 C10.34 7.34 9.68 6.68 9 6 C7.35008418 5.29289322 5.68437744 4.62056011 4 4 C4 3.34 4 2.68 4 2 C2.68 1.67 1.36 1.34 0 1 C0 0.67 0 0.34 0 0 Z " fill="#4EAB80" transform="translate(117,23)"/>
<path d="M0 0 C2.68396617 0.73660901 4.57105257 1.61203004 7 3 C7 3.99 7 4.98 7 6 C3.125 4.125 3.125 4.125 2 3 C-0.86055414 2.76284045 -3.69727656 2.57809383 -6.5625 2.4375 C-9.346875 2.293125 -12.13125 2.14875 -15 2 C-15 11.9 -15 21.8 -15 32 C-15.33 32 -15.66 32 -16 32 C-16.21724212 27.92566396 -16.41405801 23.85090319 -16.59204102 19.7746582 C-16.65544693 18.38832281 -16.72441716 17.00223022 -16.79907227 15.61645508 C-16.90544455 13.62393806 -16.99012226 11.63030018 -17.07421875 9.63671875 C-17.13182373 8.43748779 -17.18942871 7.23825684 -17.2487793 6.00268555 C-17 3 -17 3 -15.68969727 1.11010742 C-11.43946376 -1.68223642 -4.85119225 -0.42516067 0 0 Z " fill="#CFEADC" transform="translate(30,176)"/>
<path d="M0 0 C1.25296875 -0.00128906 2.5059375 -0.00257812 3.796875 -0.00390625 C5.09367187 -0.00003906 6.39046875 0.00382812 7.7265625 0.0078125 C9.66015625 0.00201172 9.66015625 0.00201172 11.6328125 -0.00390625 C26.98870366 0.01185955 26.98870366 0.01185955 33.3515625 2.1328125 C33.3515625 3.1228125 33.3515625 4.1128125 33.3515625 5.1328125 C34.79146873 7.30313726 34.79146873 7.30313726 36.3515625 9.1328125 C34.36778738 8.15192147 32.39924582 7.15886627 30.45703125 6.09765625 C29.82410156 5.75863281 29.19117188 5.41960938 28.5390625 5.0703125 C27.91386719 4.72871094 27.28867188 4.38710938 26.64453125 4.03515625 C20.26855656 1.52604185 13.21929072 1.98036585 6.4765625 2.0078125 C5.53425781 2.00394531 4.59195313 2.00007813 3.62109375 1.99609375 C-2.21469779 2.00416538 -7.86055346 2.38407185 -13.6484375 3.1328125 C-13.3184375 2.4728125 -12.9884375 1.8128125 -12.6484375 1.1328125 C-8.42181706 0.14808245 -4.32651308 0.00430866 0 0 Z " fill="#A9E0C0" transform="translate(84.6484375,42.8671875)"/>
<path d="M0 0 C10.3535227 0.65736652 17.52111623 3.78564267 25 11 C24.38382813 11.15210937 23.76765625 11.30421875 23.1328125 11.4609375 C21.70631393 11.8214811 20.28656864 12.20983275 18.875 12.625 C17 13 17 13 15 12 C15.66 10.02 16.32 8.04 17 6 C15.66195312 5.72736328 15.66195312 5.72736328 14.296875 5.44921875 C13.12640625 5.19785156 11.9559375 4.94648437 10.75 4.6875 C9.58984375 4.44386719 8.4296875 4.20023437 7.234375 3.94921875 C4.14631978 3.04294167 2.38476526 2.1073297 0 0 Z " fill="#7BC082" transform="translate(105,115)"/>
<path d="M0 0 C0.33 1.32 0.66 2.64 1 4 C0.360625 4.433125 -0.27875 4.86625 -0.9375 5.3125 C-3.26746003 6.91239177 -3.26746003 6.91239177 -4 10 C0.10081423 9.94539838 0.10081423 9.94539838 4 9 C5.94583442 6.77618924 6.79889012 4.75254348 8 2 C9.32 2 10.64 2 12 2 C13.8125 4.375 13.8125 4.375 15 7 C14.67 7.66 14.34 8.32 14 9 C12.68 7.35 11.36 5.7 10 4 C9.67128906 4.5775 9.34257813 5.155 9.00390625 5.75 C5.16504854 11.74236325 5.16504854 11.74236325 1.59765625 12.53125 C-0.64930383 12.5028524 -2.78224595 12.35484065 -5 12 C-6 10 -6 10 -5.3125 7.125 C-3.96287649 3.91161068 -2.60727005 2.25963405 0 0 Z " fill="#B9D8CC" transform="translate(63,198)"/>
<path d="M0 0 C0 3.49675538 -1.18304071 5.19058004 -3.02734375 8.0859375 C-4.94263819 11.85499081 -5.12720479 15.81704633 -5.1328125 19.984375 C-5.13410156 20.92023438 -5.13539062 21.85609375 -5.13671875 22.8203125 C-5.13285156 23.78710938 -5.12898438 24.75390625 -5.125 25.75 C-5.12886719 26.70132813 -5.13273437 27.65265625 -5.13671875 28.6328125 C-5.12867919 34.50168885 -4.75450635 40.17952243 -4 46 C-4.99 45.67 -5.98 45.34 -7 45 C-7.07485856 40.74995329 -7.12893167 36.50026866 -7.16479492 32.24975586 C-7.17976508 30.80763045 -7.20014868 29.36554964 -7.22631836 27.92358398 C-7.41052337 17.50335932 -7.53820565 8.0580819 0 0 Z " fill="#C8F6E6" transform="translate(60,52)"/>
<path d="M0 0 C-3.08809695 1.76462683 -4.23312136 2 -8 2 C-8 2.66 -8 3.32 -8 4 C-8.65226562 4.29132812 -9.30453125 4.58265625 -9.9765625 4.8828125 C-16.37398438 7.8833732 -22.37419106 10.79202391 -25.0625 17.75 C-26 20 -26 20 -28.625 21.3125 C-29.40875 21.539375 -30.1925 21.76625 -31 22 C-26.1281476 11.35760399 -16.32514225 5.0068814 -6.296875 -0.21484375 C-3.71149595 -1.09862128 -2.52618235 -0.93283339 0 0 Z " fill="#A6D3C7" transform="translate(67,22)"/>
<path d="M0 0 C0.99 0.33 1.98 0.66 3 1 C2.814375 1.61875 2.62875 2.2375 2.4375 2.875 C1.76313824 5.04160178 1.76313824 5.04160178 3 7 C3.66 7 4.32 7 5 7 C5 7.66 5 8.32 5 9 C5.99 9.33 6.98 9.66 8 10 C7.34 10 6.68 10 6 10 C6 10.66 6 11.32 6 12 C4.35 12 2.7 12 1 12 C0.67 11.01 0.34 10.02 0 9 C-0.66 9 -1.32 9 -2 9 C-2 6.36 -2 3.72 -2 1 C-1.34 0.67 -0.68 0.34 0 0 Z " fill="#2F826F" transform="translate(151,182)"/>
<path d="M0 0 C4.09030544 5.14209827 4.09030544 5.14209827 3.75 8.375 C3.37875 9.179375 3.37875 9.179375 3 10 C1.35 9.67 -0.3 9.34 -2 9 C-2 7.68 -2 6.36 -2 5 C-2.99 4.67 -3.98 4.34 -5 4 C-5.33 3.01 -5.66 2.02 -6 1 C-3.92446352 0.4465236 -2.15634036 0 0 0 Z " fill="#32816E" transform="translate(78,194)"/>
<path d="M0 0 C0 2.64 0 5.28 0 8 C-3.82989106 9.80230168 -6.78121808 10.19622241 -11 10 C-11 8.68 -11 7.36 -11 6 C-7.535 5.505 -7.535 5.505 -4 5 C-3.814375 4.0409375 -3.814375 4.0409375 -3.625 3.0625 C-3.41875 2.381875 -3.2125 1.70125 -3 1 C-1 0 -1 0 0 0 Z " fill="#31826F" transform="translate(167,197)"/>
<path d="M0 0 C6.8359375 -0.1953125 6.8359375 -0.1953125 9 0 C11 2 11 2 11.25 5 C11 8 11 8 9 10 C5.98173347 10.27240673 3.03629378 10.08675125 0 10 C0 6.7 0 3.4 0 0 Z M2 2 C1.95745644 3.99954746 1.95919217 6.00041636 2 8 C3.05310277 9.27003323 3.05310277 9.27003323 5.4375 9.1875 C8.16734675 9.26839983 8.16734675 9.26839983 10 7 C9.67958603 4.39719432 9.67958603 4.39719432 9 2 C6.69 2 4.38 2 2 2 Z " fill="#BDE0D5" transform="translate(87,65)"/>
<path d="M0 0 C0.99 0.33 1.98 0.66 3 1 C2.01 1.33 1.02 1.66 0 2 C-0.66 5.3 -1.32 8.6 -2 12 C-0.02 12.495 -0.02 12.495 2 13 C3.35432675 14.31200404 4.68733482 15.64631404 6 17 C8.13309192 18.23512079 8.13309192 18.23512079 10 19 C7.32528957 20.33735521 6.30659828 19.71006471 3.5 18.8125 C2.7059375 18.57144531 1.911875 18.33039063 1.09375 18.08203125 C-1.50885552 16.73702802 -2.0519252 15.73888275 -3 13 C-3.43188796 7.55821167 -3.37772476 4.50363302 0 0 Z " fill="#B8D6CD" transform="translate(149,178)"/>
<path d="M0 0 C3.3 0 6.6 0 10 0 C10.33 1.65 10.66 3.3 11 5 C10.01 5.33 9.02 5.66 8 6 C6.34867717 8.17700975 6.34867717 8.17700975 4.875 10.8125 C4.35679688 11.68519531 3.83859375 12.55789062 3.3046875 13.45703125 C2.1609068 15.68637627 1.46743191 17.55453305 1 20 C0 19 0 19 -0.27734375 16.7578125 C0.07478704 13.256343 1.32152565 11.65940086 3.4375 8.875 C5.48250484 6.15658952 6.9200412 4.2398764 8 1 C5.36 1 2.72 1 0 1 C0 0.67 0 0.34 0 0 Z " fill="#BADAD1" transform="translate(79,176)"/>
<path d="M0 0 C0.99 0 1.98 0 3 0 C2.814375 0.763125 2.62875 1.52625 2.4375 2.3125 C1.77180827 5.08967375 1.77180827 5.08967375 3 8 C3.66 8 4.32 8 5 8 C5.33 9.65 5.66 11.3 6 13 C5.34 13 4.68 13 4 13 C3.62875 12.278125 3.2575 11.55625 2.875 10.8125 C0.59590417 7.39385626 -1.83677018 6.01906418 -5.35546875 4.015625 C-5.89816406 3.68046875 -6.44085938 3.3453125 -7 3 C-7 2.67 -7 2.34 -7 2 C-4.69 2 -2.38 2 0 2 C0 1.34 0 0.68 0 0 Z " fill="#7CC6A7" transform="translate(115,138)"/>
<path d="M0 0 C0.71484375 1.765625 0.71484375 1.765625 1 4 C-0.43359375 5.921875 -0.43359375 5.921875 -2.4375 7.75 C-3.09621094 8.36359375 -3.75492188 8.9771875 -4.43359375 9.609375 C-4.95050781 10.06828125 -5.46742188 10.5271875 -6 11 C-4.68 11.66 -3.36 12.32 -2 13 C-2.33 13.99 -2.66 14.98 -3 16 C-6.465 14.02 -6.465 14.02 -10 12 C-8.86280581 8.58841744 -7.95657056 7.88145399 -5 6 C-4.34 6 -3.68 6 -3 6 C-2.67 4.68 -2.34 3.36 -2 2 C-1.34 2 -0.68 2 0 2 C0 1.34 0 0.68 0 0 Z " fill="#4AAD77" transform="translate(135,108)"/>
<path d="M0 0 C0.54527344 0.39832031 1.09054688 0.79664062 1.65234375 1.20703125 C6.90854387 4.89984877 11.79809675 7.32856508 18 9 C18 9.33 18 9.66 18 10 C11.80906687 10.53834201 6.31677602 9.34835131 1 6 C-0.125 2.75 -0.125 2.75 0 0 Z " fill="#8FD1B9" transform="translate(60,104)"/>
<path d="M0 0 C4.95 0 9.9 0 15 0 C15.33 1.32 15.66 2.64 16 4 C15.01 4 14.02 4 13 4 C13 4.66 13 5.32 13 6 C10.69 6 8.38 6 6 6 C6.639375 5.731875 7.27875 5.46375 7.9375 5.1875 C10.33131686 4.11332248 10.33131686 4.11332248 11 1 C7.37 1 3.74 1 0 1 C0 0.67 0 0.34 0 0 Z " fill="#3D8472" transform="translate(17,178)"/>
<path d="M0 0 C0.598125 0.20625 1.19625 0.4125 1.8125 0.625 C1.8125 2.275 1.8125 3.925 1.8125 5.625 C-0.8275 5.625 -3.4675 5.625 -6.1875 5.625 C-5.875 3.75 -5.875 3.75 -5.1875 1.625 C-2.1875 -0.375 -2.1875 -0.375 0 0 Z " fill="#488B7A" transform="translate(65.1875,202.375)"/>
<path d="M0 0 C2.33294775 -0.04241723 4.66702567 -0.04092937 7 0 C7.33 0.33 7.66 0.66 8 1 C7.71269945 3.33944736 7.38063221 5.6739143 7 8 C5.00045254 8.04254356 2.99958364 8.04080783 1 8 C0 7 0 7 -0.0625 3.4375 C-0.041875 2.303125 -0.02125 1.16875 0 0 Z M2 1 C2 2.65 2 4.3 2 6 C3.65 5.67 5.3 5.34 7 5 C6.67 3.68 6.34 2.36 6 1 C4.68 1 3.36 1 2 1 Z " fill="#A0C9BD" transform="translate(22,184)"/>
<path d="M0 0 C0.90105469 0.01804688 1.80210937 0.03609375 2.73046875 0.0546875 C3.41753906 0.07789063 4.10460937 0.10109375 4.8125 0.125 C4.8125 0.455 4.8125 0.785 4.8125 1.125 C3.74 1.228125 2.6675 1.33125 1.5625 1.4375 C-2.11125834 2.11102236 -3.43907596 2.78374989 -6.1875 5.125 C-6.8475 5.125 -7.5075 5.125 -8.1875 5.125 C-8.1875 7.435 -8.1875 9.745 -8.1875 12.125 C-8.8475 12.125 -9.5075 12.125 -10.1875 12.125 C-10.36508833 8.21805679 -10.42263741 5.41888671 -8.1875 2.125 C-4.87379 -0.08414 -3.8428979 -0.09981553 0 0 Z " fill="#549180" transform="translate(157.1875,177.875)"/>
<path d="M0 0 C8.4689565 0.98211428 8.4689565 0.98211428 12.01171875 4.08203125 C12.82421875 6.76953125 12.82421875 6.76953125 13.01171875 9.08203125 C11.69171875 9.41203125 10.37171875 9.74203125 9.01171875 10.08203125 C9.67171875 9.75203125 10.33171875 9.42203125 11.01171875 9.08203125 C9.64188372 5.92087349 9.02265495 5.08932205 6.01171875 3.08203125 C3.50275189 2.62601864 3.50275189 2.62601864 0.82421875 2.45703125 C-0.07683594 2.38226563 -0.97789062 2.3075 -1.90625 2.23046875 C-2.59332031 2.18148437 -3.28039062 2.1325 -3.98828125 2.08203125 C-1.98828125 0.08203125 -1.98828125 0.08203125 0 0 Z " fill="#C2DED3" transform="translate(155.98828125,175.91796875)"/>
<path d="M0 0 C0.33 0 0.66 0 1 0 C1 3.3 1 6.6 1 10 C-0.98 10.66 -2.96 11.32 -5 12 C-5 11.01 -5 10.02 -5 9 C-4.34 9 -3.68 9 -3 9 C-2.87625 8.071875 -2.7525 7.14375 -2.625 6.1875 C-2 3 -2 3 0 0 Z " fill="#2B836F" transform="translate(84,87)"/>
<path d="M0 0 C1.54098034 6.16392135 -1.07951031 11.605195 -4.16015625 17.05078125 C-5.0588151 18.40038003 -6.02156566 19.7070689 -7 21 C-8.27351308 18.45297384 -7.80191925 17.5717055 -7.0625 14.875 C-6.86785156 14.15054688 -6.67320312 13.42609375 -6.47265625 12.6796875 C-6.31667969 12.12539062 -6.16070312 11.57109375 -6 11 C-5.01 11 -4.02 11 -3 11 C-2.01 7.37 -1.02 3.74 0 0 Z " fill="#B5E0C4" transform="translate(152,96)"/>
<path d="M0 0 C3.11198065 1.49836105 6.0534615 3.19933758 9 5 C9.33 4.34 9.66 3.68 10 3 C10.66 3.66 11.32 4.32 12 5 C11.67 5.33 11.34 5.66 11 6 C12.32 7.32 13.64 8.64 15 10 C11.45949499 10 10.39332691 9.19817345 7.5 7.25 C6.7265625 6.73953125 5.953125 6.2290625 5.15625 5.703125 C2.98397794 3.9873449 1.5474553 2.28150461 0 0 Z " fill="#7FBFAD" transform="translate(43,122)"/>
<path d="M0 0 C0.99 0.495 0.99 0.495 2 1 C2.33 1.99 2.66 2.98 3 4 C3.66 4.33 4.32 4.66 5 5 C5.33 4.34 5.66 3.68 6 3 C5.41196203 6.02419525 4.77321882 9.01758453 4 12 C3.01 12 2.02 12 1 12 C0.67 8.04 0.34 4.08 0 0 Z " fill="#6AC175" transform="translate(124,139)"/>
<path d="M0 0 C0.66 0.66 1.32 1.32 2 2 C1.01 3.32 0.02 4.64 -1 6 C-0.34 6 0.32 6 1 6 C0.65120368 9.25543229 -0.02133261 10.01873107 -2.5625 12.25 C-3.366875 12.8275 -4.17125 13.405 -5 14 C-4.53411505 8.29290936 -3.06242216 4.84060277 0 0 Z " fill="#36836F" transform="translate(37,45)"/>
<path d="M0 0 C5.28 0 10.56 0 16 0 C15.67 0.66 15.34 1.32 15 2 C16.32 3.98 17.64 5.96 19 8 C17.01622488 7.01910897 15.04768332 6.02605377 13.10546875 4.96484375 C8.65998816 2.58365965 5.02855476 1.41904623 0 1 C0 0.67 0 0.34 0 0 Z " fill="#BAE4BF" transform="translate(102,44)"/>
<path d="M0 0 C1.32 0.66 2.64 1.32 4 2 C4.042721 3.66611905 4.04063832 5.33382885 4 7 C3 8 3 8 0.93359375 8.09765625 C0.10988281 8.08605469 -0.71382813 8.07445312 -1.5625 8.0625 C-2.38878906 8.05347656 -3.21507813 8.04445312 -4.06640625 8.03515625 C-4.70449219 8.02355469 -5.34257813 8.01195312 -6 8 C-6 7.01 -6 6.02 -6 5 C-3.36 5.33 -0.72 5.66 2 6 C1.34 5.01 0.68 4.02 0 3 C0 2.01 0 1.02 0 0 Z " fill="#CDE3D6" transform="translate(85,202)"/>
<path d="M0 0 C6.04433574 1.35997554 9.63494136 4.85651794 14 9 C13.01 10.485 13.01 10.485 12 12 C11.63648438 11.54109375 11.27296875 11.0821875 10.8984375 10.609375 C7.5733959 6.5511191 4.45048913 3.7550647 0 1 C0 0.67 0 0.34 0 0 Z " fill="#B8ECC1" transform="translate(120,118)"/>
<path d="M0 0 C1.8125 0.5 1.8125 0.5 4 2 C4.93953247 4.00660329 5.62844101 6.01101123 6.2890625 8.125 C6.9308084 10.20446121 6.9308084 10.20446121 9 12 C8.01 13.485 8.01 13.485 7 15 C4.15543212 10.11429181 1.54545146 5.47932789 0 0 Z " fill="#56B373" transform="translate(133,46)"/>
<path d="M0 0 C0.33 1.32 0.66 2.64 1 4 C0.360625 4.4125 -0.27875 4.825 -0.9375 5.25 C-3.20990931 7.17810487 -3.60196439 8.11424181 -4 11 C-1.36 11 1.28 11 4 11 C4 11.33 4 11.66 4 12 C1.03 12 -1.94 12 -5 12 C-6 10 -6 10 -5.3125 7.125 C-3.96287649 3.91161068 -2.60727005 2.25963405 0 0 Z " fill="#CAE0D2" transform="translate(63,198)"/>
<path d="M0 0 C0.33 0 0.66 0 1 0 C1 4.29 1 8.58 1 13 C-1.97 13 -4.94 13 -8 13 C-7.67 12.01 -7.34 11.02 -7 10 C-6.34 10.33 -5.68 10.66 -5 11 C-3.68 10.67 -2.36 10.34 -1 10 C-0.67 6.7 -0.34 3.4 0 0 Z " fill="#3A7D6C" transform="translate(85,87)"/>
<path d="M0 0 C3.98175544 2.10148204 6.35039045 4.36905358 9 8 C8.67 8.66 8.34 9.32 8 10 C7.01 9.34 6.02 8.68 5 8 C4.34 8 3.68 8 3 8 C0 2.25 0 2.25 0 0 Z " fill="#ABDABC" transform="translate(136,32)"/>
<path d="M0 0 C-1.52417109 3.04834217 -3.96038723 3.62919424 -7 5 C-9.375 5.6875 -9.375 5.6875 -11 6 C-10.03628506 3.59071265 -9.34789837 2.23992991 -7.1875 0.75 C-4.67678635 -0.11081611 -2.63651351 -0.14647297 0 0 Z " fill="#179376" transform="translate(64,25)"/>
<path d="M0 0 C2.31 0.33 4.62 0.66 7 1 C6.67 1.66 6.34 2.32 6 3 C5.34 3 4.68 3 4 3 C3.67 3.99 3.34 4.98 3 6 C2.01 5.67 1.02 5.34 0 5 C-0.33 4.01 -0.66 3.02 -1 2 C-0.67 1.34 -0.34 0.68 0 0 Z " fill="#67BF79" transform="translate(122,114)"/>
<path d="M0 0 C1.41750563 0.11509661 2.83401169 0.24253658 4.25 0.375 C5.03890625 0.44460937 5.8278125 0.51421875 6.640625 0.5859375 C9.085877 1.01507113 10.84836903 1.78600638 13 3 C13 3.33 13 3.66 13 4 C7.73946963 4.31563182 4.55426184 3.66590937 0 1 C0 0.67 0 0.34 0 0 Z " fill="#70BA87" transform="translate(105,115)"/>
<path d="M0 0 C0.33 0.99 0.66 1.98 1 3 C1.99 3.33 2.98 3.66 4 4 C5.23867161 6.61497339 6.08503983 9.25511949 7 12 C3.86501824 10.91897181 3.0131441 10.02159388 1.25 7.125 C0 4 0 4 0 0 Z " fill="#3B8573" transform="translate(34,104)"/>
<path d="M0 0 C3.9226818 3.24635735 5.96609666 7.0527242 7 12 C6.57421875 14.25 6.57421875 14.25 6 16 C5.73445312 15.30132812 5.46890625 14.60265625 5.1953125 13.8828125 C4.84210938 12.97273438 4.48890625 12.06265625 4.125 11.125 C3.77695313 10.22007813 3.42890625 9.31515625 3.0703125 8.3828125 C2.11469105 5.87782993 2.11469105 5.87782993 0 4 C0 2.68 0 1.36 0 0 Z " fill="#C7E8D0" transform="translate(145,42)"/>
<path d="M0 0 C0 0.99 0 1.98 0 3 C-2.63259597 5.41914224 -4.59428799 6.86476266 -8 8 C-8.66 6.68 -9.32 5.36 -10 4 C-8.906875 3.896875 -7.81375 3.79375 -6.6875 3.6875 C-3.14440371 3.02692273 -2.06756277 2.7972908 0 0 Z " fill="#B1D9B7" transform="translate(131,147)"/>
<path d="M0 0 C3.3 0.99 6.6 1.98 10 3 C9.01 3.66 8.02 4.32 7 5 C3.3125 4.125 3.3125 4.125 0 3 C0 2.01 0 1.02 0 0 Z " fill="#1B9579" transform="translate(57,129)"/>
<path d="M0 0 C3.3 0 6.6 0 10 0 C10.33 1.65 10.66 3.3 11 5 C10.01 5 9.02 5 8 5 C8 3.68 8 2.36 8 1 C5.36 1 2.72 1 0 1 C0 0.67 0 0.34 0 0 Z " fill="#E0EEE8" transform="translate(79,176)"/>
<path d="M0 0 C-0.33 0.99 -0.66 1.98 -1 3 C-0.01 3.33 0.98 3.66 2 4 C2 4.66 2 5.32 2 6 C-0.64 5.34 -3.28 4.68 -6 4 C-5.67 3.01 -5.34 2.02 -5 1 C-2 0 -2 0 0 0 Z " fill="#98CCA6" transform="translate(115,110)"/>
<path d="M0 0 C1.32 0.33 2.64 0.66 4 1 C4 1.99 4 2.98 4 4 C0.25 5.125 0.25 5.125 -2 4 C-1.34 2.68 -0.68 1.36 0 0 Z " fill="#6ABF72" transform="translate(122,123)"/>
<path d="M0 0 C1.258125 -0.04125 2.51625 -0.0825 3.8125 -0.125 C4.52019531 -0.14820312 5.22789063 -0.17140625 5.95703125 -0.1953125 C8 0 8 0 11 2 C6.545 2.495 6.545 2.495 2 3 C1.34 2.01 0.68 1.02 0 0 Z " fill="#39A77E" transform="translate(106,21)"/>
<path d="M0 0 C1.98 0 3.96 0 6 0 C5.67 1.32 5.34 2.64 5 4 C3.35 4 1.7 4 0 4 C0 2.68 0 1.36 0 0 Z " fill="#4DB673" transform="translate(96,115)"/>
<path d="M0 0 C0 3.90838866 -1.50567876 5.11594107 -4 8 C-5.32 7.67 -6.64 7.34 -8 7 C-7.01 6.67 -6.02 6.34 -5 6 C-5 5.34 -5 4.68 -5 4 C-3.37373596 2.61767557 -1.7074998 1.28062485 0 0 Z " fill="#C5E8C8" transform="translate(123,102)"/>
<path d="M0 0 C0.99 0.33 1.98 0.66 3 1 C2.34 2.32 1.68 3.64 1 5 C0.01 5 -0.98 5 -2 5 C-2 3.68 -2 2.36 -2 1 C-1.34 0.67 -0.68 0.34 0 0 Z " fill="#2E856F" transform="translate(68,185)"/>
<path d="M0 0 C0.66 0 1.32 0 2 0 C2.33 2.97 2.66 5.94 3 9 C2.01 8.67 1.02 8.34 0 8 C0 5.36 0 2.72 0 0 Z " fill="#97DAC5" transform="translate(53,89)"/>
</svg>